<?xml version="1.0" standalone="no"?>
<!DOCTYPE svg PUBLIC "-//W3C//DTD SVG 20010904//EN"
 "http://www.w3.org/TR/2001/REC-SVG-20010904/DTD/svg10.dtd">
<svg version="1.0" xmlns="http://www.w3.org/2000/svg"
 width="1024.000000pt" height="1024.000000pt" viewBox="0 0 1024.000000 1024.000000"
 preserveAspectRatio="xMidYMid meet">
<metadata>
Created by potrace 1.14, written by Peter Selinger 2001-2017
</metadata>
<g transform="translate(0.000000,1024.000000) scale(0.100000,-0.100000)"
fill="#000000" stroke="none">
<path d="M0 5120 l0 -5120 5120 0 5120 0 0 5120 0 5120 -5120 0 -5120 0 0
-5120z m8721 4537 c-13 -13 -31 0 -24 19 4 11 8 12 20 3 9 -8 10 -16 4 -22z
m-78 -62 c-3 -9 -8 -14 -10 -11 -3 3 -2 9 2 15 9 16 15 13 8 -4z m-56 -42 c-3
-10 -5 -2 -5 17 0 19 2 27 5 18 2 -10 2 -26 0 -35z m-52 -83 c27 -30 11 -35
-21 -6 -21 18 -24 25 -13 26 9 0 24 -9 34 -20z m-1104 -201 c-7 -44 -9 -47
-10 -19 -1 36 9 84 15 77 3 -2 0 -28 -5 -58z m-14 -106 c-3 -10 -5 -4 -5 12 0
17 2 24 5 18 2 -7 2 -21 0 -30z m-607 -29 c0 -3 -17 -12 -37 -21 -21 -8 -69
-35 -106 -59 -38 -25 -66 -40 -62 -34 9 14 112 79 160 101 48 21 45 20 45 13z
m-141 -45 c-18 -11 -52 -11 -45 0 3 5 17 9 32 9 18 0 22 -3 13 -9z m1911 1 c0
-5 -5 -10 -11 -10 -5 0 -7 5 -4 10 3 6 8 10 11 10 2 0 4 -4 4 -10z m-2019 -40
c-30 -17 -56 -28 -58 -26 -6 6 80 55 97 55 8 1 -9 -13 -39 -29z m779 -30 c-12
-16 -24 -30 -26 -30 -3 0 4 14 16 30 12 17 24 30 26 30 3 0 -4 -13 -16 -30z
m-764 5 c-8 -8 -18 -15 -22 -15 -3 0 -1 7 6 15 7 8 17 15 22 15 5 0 3 -7 -6
-15z m-138 -74 c-18 -27 -34 -48 -36 -46 -6 6 54 95 65 95 2 0 -11 -22 -29
-49z m40 -9 c-12 -23 -23 -40 -26 -38 -2 3 6 23 19 45 29 53 36 46 7 -7z m452
18 c0 -12 -50 -59 -62 -60 -14 0 -8 33 9 52 17 19 53 25 53 8z m42 -35 c-2
-14 1 -31 7 -38 12 -15 68 -11 89 6 27 21 23 -4 -5 -32 -23 -23 -36 -28 -59
-24 -54 10 -77 48 -58 97 10 27 32 19 26 -9z m155 -31 c-3 -3 -12 -4 -19 -1
-8 3 -5 6 6 6 11 1 17 -2 13 -5z m-736 -53 c-6 -11 -11 -29 -11 -40 0 -12 -4
-21 -10 -21 -13 0 -13 -3 7 61 9 30 18 46 20 37 3 -9 -1 -26 -6 -37z m121 37
c-5 -7 -16 -32 -23 -56 -7 -23 -14 -40 -16 -38 -7 7 19 91 31 98 17 11 20 10
8 -4z m345 -20 c-3 -8 -6 -5 -6 6 -1 11 2 17 5 13 3 -3 4 -12 1 -19z m1271 0
c-4 -29 -38 -38 -38 -10 0 22 8 32 27 32 9 0 13 -8 11 -22z m-1670 -95 c-1
-53 -5 -87 -9 -77 -5 13 -8 3 -8 -28 -1 -44 -7 -55 -68 -130 -38 -45 -83 -98
-102 -117 -30 -32 -31 -33 -13 -6 11 17 52 68 90 114 39 46 73 96 76 110 3 14
9 74 12 133 4 59 11 105 15 102 5 -3 8 -48 7 -101z m2812 65 c0 -6 -7 -5 -15
2 -8 7 -15 17 -15 22 0 6 7 5 15 -2 8 -7 15 -17 15 -22z m-560 -10 c0 -5 12
-8 28 -9 20 0 3 -12 -73 -50 -74 -36 -112 -49 -145 -49 -74 -1 -210 -29 -246
-51 -22 -13 -34 -28 -34 -43 0 -12 -9 -40 -20 -61 -11 -22 -23 -65 -27 -95
-10 -94 -23 -91 -18 5 l5 90 -24 -39 c-23 -36 -25 -37 -28 -15 -3 21 -5 20
-22 -16 -46 -98 -93 -134 -216 -161 -39 -9 -70 -21 -70 -26 0 -6 12 -8 28 -5
l27 5 -27 -21 c-15 -12 -54 -33 -88 -46 -62 -25 -97 -51 -67 -51 19 0 142 52
242 102 l39 20 -14 -20 c-59 -80 -81 -114 -109 -167 -34 -66 -39 -95 -16 -95
11 0 14 -7 9 -24 -9 -39 19 -37 81 5 68 46 94 51 48 9 -18 -16 -33 -32 -33
-34 0 -15 113 29 142 56 48 45 59 52 52 35 -3 -9 -2 -17 3 -17 5 0 21 23 36
52 26 51 36 54 18 5 -13 -35 -70 -97 -98 -108 -13 -5 -23 -16 -23 -24 0 -10
-5 -13 -12 -9 -8 5 -9 2 -5 -10 4 -9 3 -15 -2 -11 -5 3 -11 2 -14 -2 -2 -5 -2
-2 -1 5 4 16 -3 15 -50 -7 -23 -11 -66 -29 -96 -41 -30 -12 -73 -29 -95 -38
-56 -24 -163 -135 -203 -212 -20 -39 -29 -67 -23 -73 5 -5 12 -1 16 13 4 12
12 19 19 17 6 -3 32 25 57 61 25 36 51 68 59 70 9 3 3 -10 -13 -31 -15 -19
-27 -39 -27 -43 0 -4 -11 -22 -25 -40 -51 -66 -23 -55 50 20 114 117 93 66
-27 -67 -32 -35 -58 -69 -58 -76 0 -18 28 -13 50 11 11 12 20 18 20 13 0 -15
42 40 56 74 23 55 26 30 4 -34 -24 -71 -24 -68 0 -60 43 14 81 15 74 2 -5 -9
-4 -9 6 0 7 6 18 9 25 7 7 -3 16 -1 20 5 3 6 11 11 17 11 21 0 -23 -37 -76
-64 -44 -22 -74 -29 -162 -35 -135 -10 -183 -25 -228 -67 -19 -18 -37 -30 -40
-27 -3 4 -6 -1 -6 -11 0 -9 -4 -15 -9 -11 -11 6 -34 -29 -25 -38 3 -3 -1 -18
-10 -34 -8 -15 -16 -23 -16 -18 0 6 -9 -12 -19 -40 -10 -27 -44 -103 -75 -168
-31 -65 -56 -120 -56 -123 0 -3 -9 -19 -21 -35 -29 -42 -7 -36 32 9 56 61 89
109 94 132 6 29 15 39 15 16 0 -55 -126 -214 -159 -201 -13 5 -13 4 -4 -6 7
-7 9 -17 4 -23 -5 -6 -11 -60 -14 -121 l-5 -110 18 100 c16 89 18 95 19 49 1
-28 -4 -65 -10 -83 -6 -18 -9 -34 -7 -37 7 -6 68 110 68 129 0 8 3 17 8 19 10
4 44 79 39 85 -7 6 -45 -50 -66 -99 -17 -36 -20 -39 -20 -18 -1 14 20 61 46
105 25 44 73 134 107 199 34 66 66 121 73 123 7 3 -8 -39 -33 -92 -25 -54 -54
-132 -65 -174 -11 -42 -24 -92 -29 -111 -26 -97 14 -61 77 70 46 96 111 200
145 233 10 10 18 26 18 36 0 10 3 40 7 66 6 46 5 48 -16 42 -19 -5 -21 -3 -9
11 30 39 45 41 42 5 -2 -16 -5 -63 -7 -106 l-4 -77 36 6 c94 17 144 53 243
180 11 13 25 23 31 22 7 -1 22 3 35 10 21 12 33 0 12 -13 -5 -3 -10 -10 -10
-15 0 -24 310 161 383 228 51 48 60 49 25 1 -20 -27 -160 -123 -231 -159 -16
-8 -62 -44 -102 -80 -96 -84 -134 -114 -165 -130 -14 -7 -51 -32 -82 -56 -31
-24 -58 -39 -60 -34 -4 11 -114 -36 -153 -66 -18 -13 -40 -41 -51 -61 -10 -21
-22 -39 -26 -41 -4 -2 -13 -22 -19 -44 -9 -35 -79 -126 -79 -103 0 4 -10 -4
-21 -19 -12 -15 -19 -30 -15 -33 3 -4 6 0 6 7 0 11 3 11 11 3 13 -13 17 -10
65 52 17 22 36 54 42 70 11 29 11 28 5 -10 -5 -40 -19 -79 -50 -143 -9 -17
-13 -35 -10 -39 4 -3 7 -1 7 6 0 6 12 23 27 37 23 21 25 27 13 36 -13 8 -12 9
1 5 9 -3 22 0 28 6 8 8 11 4 11 -16 0 -27 0 -27 25 -11 24 16 25 16 25 -10 0
-14 4 -26 9 -26 15 0 22 -32 9 -47 -7 -9 -21 -12 -34 -9 -20 5 -27 -3 -63 -76
-38 -76 -68 -166 -77 -228 -2 -14 -1 -17 2 -7 3 9 9 17 14 17 4 0 13 15 20 33
30 83 54 116 94 132 23 10 48 20 56 24 24 13 72 86 73 115 1 14 5 26 10 26 4
0 7 7 7 16 0 14 -2 14 -15 0 -8 -8 -15 -20 -15 -26 0 -7 -5 -7 -14 2 -11 10
-8 21 18 61 17 27 36 57 42 68 6 10 14 16 17 12 4 -3 7 0 7 9 0 8 9 23 20 33
12 11 20 13 20 6 0 -7 5 -9 10 -6 6 4 8 11 4 16 -3 5 -2 8 3 7 4 -2 8 0 8 3 0
4 7 15 16 25 9 11 20 30 23 44 l7 25 -16 -25 -16 -25 7 25 c4 14 12 36 19 50
7 14 16 41 20 60 13 62 36 93 144 198 99 96 155 142 174 142 9 0 -17 -39 -58
-85 -39 -44 -54 -77 -44 -100 4 -11 8 -28 8 -37 1 -19 -133 -121 -145 -110 -4
4 -4 1 0 -5 4 -7 2 -13 -3 -13 -6 0 -11 -6 -11 -14 0 -8 -5 -16 -12 -18 -19
-7 -20 -51 -2 -90 9 -21 21 -38 26 -38 4 0 8 -4 8 -9 0 -5 -9 -7 -19 -4 -19 5
-59 -25 -119 -87 -28 -29 -70 -108 -88 -165 -6 -22 -17 -39 -24 -37 -9 2 -10
-6 -6 -25 4 -18 3 -23 -2 -14 -7 10 -11 6 -15 -15 -22 -110 -34 -132 -119
-211 -25 -23 -59 -70 -77 -107 -18 -36 -36 -66 -42 -66 -5 0 -9 -14 -9 -31 0
-16 -4 -28 -9 -25 -4 3 -17 -5 -29 -17 -26 -28 -92 -138 -92 -154 0 -20 55 14
94 57 56 62 52 47 -7 -27 -65 -83 -79 -106 -44 -74 33 30 34 24 6 -24 -12 -20
-19 -38 -16 -41 7 -7 46 49 59 87 6 18 35 66 65 108 30 42 62 87 71 100 35 49
75 79 131 96 14 4 21 3 18 -2 -7 -11 103 43 118 58 5 5 15 9 23 9 25 0 -17
-54 -74 -95 -29 -21 -52 -41 -49 -43 7 -7 75 19 90 35 8 8 15 10 15 5 0 -14
-73 -62 -163 -107 -57 -28 -85 -49 -96 -70 -28 -52 -119 -179 -148 -206 -15
-14 -48 -39 -73 -55 -53 -34 -76 -54 -61 -54 5 0 13 4 16 10 3 5 16 15 28 21
12 6 2 -6 -23 -27 -24 -22 -46 -37 -49 -36 -13 10 -101 -217 -101 -260 0 -10
-5 -18 -11 -18 -15 0 -8 682 7 701 17 20 28 99 15 99 -6 0 -11 -8 -12 -17 0
-13 -3 -12 -10 6 -5 13 -8 76 -7 140 1 64 -2 157 -6 207 -6 64 -5 102 3 127
17 49 17 263 1 358 -7 42 -9 96 -6 120 4 24 8 65 10 91 12 162 18 194 49 254
18 34 54 104 80 155 73 140 150 228 272 312 33 22 72 50 87 63 l27 22 -23 16
c-13 8 -44 20 -69 27 -54 13 -255 8 -265 -6 -4 -6 -56 -26 -117 -45 -94 -30
-124 -35 -210 -35 -63 0 -120 -6 -155 -17 -30 -9 -80 -22 -110 -28 -30 -7 -85
-21 -123 -31 -124 -36 -90 -8 50 40 76 27 167 62 203 78 36 17 72 33 80 36 11
4 9 6 -5 6 -11 0 -40 -9 -65 -20 -76 -35 -200 -79 -223 -79 -12 0 -58 -12
-102 -26 -91 -29 -182 -43 -172 -27 4 6 60 25 124 42 242 65 346 99 338 111
-3 5 -460 8 -1016 7 l-1011 -2 -19 -24 c-18 -22 -19 -44 -19 -402 0 -257 -3
-379 -10 -379 -8 0 -10 122 -8 385 4 462 -10 422 149 436 57 4 105 8 107 9 2
0 36 32 77 70 41 39 79 71 84 71 22 3 27 5 74 33 26 15 47 32 47 36 0 11 67
33 83 27 6 -2 -3 -7 -20 -11 -18 -4 -36 -12 -39 -18 -7 -12 25 -3 69 17 15 8
53 19 85 25 68 14 126 49 147 90 9 16 22 30 30 30 8 0 15 -2 15 -5 0 -12 -67
-78 -94 -92 -41 -21 -227 -85 -251 -86 -11 0 -33 -9 -50 -18 -16 -10 -48 -27
-70 -37 -22 -11 -53 -34 -70 -51 l-30 -33 30 7 c17 4 56 25 89 47 54 38 156
85 156 73 0 -3 -21 -15 -46 -25 -47 -20 -105 -60 -87 -60 5 0 13 4 19 9 26 25
187 99 239 110 78 17 131 47 146 83 6 16 13 27 15 25 7 -6 -17 -67 -26 -67 -4
0 -11 -7 -14 -16 -5 -13 -3 -14 6 -6 20 15 90 43 83 32 -9 -15 9 -12 61 10 26
12 54 18 61 16 8 -3 12 -2 9 2 -2 4 7 13 22 20 15 6 72 48 127 93 55 44 123
92 150 105 42 21 46 22 25 5 -14 -11 -20 -21 -15 -21 26 0 176 60 214 86 24
16 53 34 64 41 11 6 24 19 29 27 5 9 13 14 17 12 4 -3 25 37 47 89 21 52 42
95 46 95 3 0 9 -29 13 -64 9 -82 -8 -122 -105 -246 -88 -113 -112 -135 -170
-156 -78 -28 -168 -75 -191 -100 -38 -40 -14 -38 47 4 32 22 62 38 67 35 4 -3
17 3 28 13 10 9 22 14 25 11 4 -3 -9 -19 -27 -34 -50 -41 -179 -169 -179 -178
0 -6 93 67 155 123 17 15 36 25 44 24 7 -2 10 1 6 7 -3 6 -1 11 5 11 6 0 9 4
6 9 -3 5 0 11 7 14 20 8 169 123 199 154 15 15 48 51 73 78 l46 50 -47 -62
c-32 -43 -45 -68 -41 -83 3 -13 -5 -30 -25 -52 -34 -37 -81 -124 -75 -141 2
-7 12 4 22 23 10 19 35 60 57 90 21 30 36 60 34 67 -3 7 0 14 7 14 35 4 87 20
87 28 0 3 17 7 38 9 47 3 100 20 132 42 14 9 30 15 37 13 6 -2 17 5 23 17 8
14 17 19 28 15 9 -3 13 -3 10 1 -6 5 133 104 147 104 2 0 -23 -25 -56 -57 -32
-31 -59 -61 -59 -67 -1 -35 -81 -96 -166 -127 -32 -12 -72 -31 -89 -42 -47
-32 -105 -89 -99 -99 8 -13 -16 -38 -35 -37 -10 0 -11 2 -3 6 6 2 12 9 12 14
0 20 -21 -4 -72 -78 -45 -68 -48 -74 -22 -56 44 30 87 44 146 48 29 2 71 11
93 20 88 36 170 82 202 111 18 17 33 27 33 21 0 -26 -87 -83 -222 -146 -157
-73 -202 -101 -219 -132 -10 -19 -9 -19 28 -3 21 9 65 27 98 41 33 14 85 38
116 53 58 29 79 29 56 1 -6 -9 6 -3 28 14 22 16 42 33 43 37 2 5 8 6 12 3 18
-11 126 68 163 117 41 56 44 57 21 3 -8 -21 -13 -43 -10 -51 3 -7 0 -16 -6
-20 -7 -5 -8 -2 -3 6 4 7 -18 -8 -49 -34 -31 -25 -69 -52 -84 -60 -16 -8 -35
-23 -43 -32 -12 -16 -10 -15 19 2 18 10 56 36 84 58 28 21 56 39 62 40 6 1 25
9 41 18 17 9 44 19 61 22 42 9 98 73 133 150 15 34 35 67 43 74 8 6 -5 -29
-29 -79 -49 -99 -51 -129 -4 -53 17 27 38 58 47 69 l17 20 -8 -20 c-18 -49
-24 -79 -17 -84 4 -4 8 -14 8 -23 1 -11 -23 -28 -80 -53 -100 -46 -179 -96
-217 -138 -54 -59 -26 -61 44 -3 26 21 62 47 80 57 80 46 188 99 202 99 9 0
14 3 12 8 -3 4 14 8 36 8 23 1 53 2 67 3 23 2 23 3 5 10 -16 7 -12 10 22 15
23 4 52 5 64 1 13 -4 19 -3 16 2 -4 5 -1 10 6 10 7 0 30 3 52 6 22 4 33 4 25
0 -8 -3 -33 -13 -55 -23 -22 -10 -71 -28 -109 -40 -43 -14 -81 -35 -101 -54
-17 -17 -22 -24 -11 -15 12 9 63 31 114 49 106 36 264 108 242 110 -8 0 1 10
22 20 20 11 64 55 98 97 35 43 71 87 81 98 10 11 32 36 49 57 27 32 101 74 85
48 -4 -6 -2 -10 4 -10 5 0 13 5 16 10 7 11 96 14 93 3 0 -5 2 -16 7 -26 4 -10
3 -29 -4 -43 -8 -19 -17 -24 -41 -22 -16 1 -30 6 -30 10 0 4 -12 14 -27 21
-24 13 -29 12 -69 -17 -23 -17 -45 -40 -48 -51 -5 -20 -5 -20 -20 0 -15 19
-15 19 -15 -10 -1 -103 48 -166 133 -172 96 -8 171 59 182 162 7 64 48 172 72
192 25 21 6 26 -28 8 -18 -9 -34 -14 -36 -12 -5 4 23 21 140 88 l49 27 214 -1
c117 -1 213 -5 213 -9z m480 -13 c0 -8 -4 -15 -10 -15 -5 0 -10 7 -10 15 0 8
5 15 10 15 6 0 10 -7 10 -15z m-2350 -15 c0 -5 -2 -10 -4 -10 -3 0 -8 5 -11
10 -3 6 -1 10 4 10 6 0 11 -4 11 -10z m25 -10 c3 -5 1 -10 -4 -10 -6 0 -11 5
-11 10 0 6 2 10 4 10 3 0 8 -4 11 -10z m-531 -80 c-15 -27 -36 -58 -47 -67
-16 -14 -15 -10 5 17 14 19 34 54 44 78 10 24 20 39 22 33 2 -6 -9 -33 -24
-61z m510 25 c5 -22 4 -26 -4 -15 -5 8 -10 24 -10 34 0 26 6 18 14 -19z m-749
-55 c-3 -5 -12 -10 -18 -10 -7 0 -6 4 3 10 19 12 23 12 15 0z m-117 -90 c-29
-33 -58 -60 -66 -60 -7 0 13 27 45 60 32 33 61 60 66 60 4 0 -16 -27 -45 -60z
m1362 -20 c-8 -5 -19 -10 -25 -10 -5 0 -3 5 5 10 8 5 20 10 25 10 6 0 3 -5 -5
-10z m-65 -20 c-3 -5 -12 -10 -18 -10 -7 0 -6 4 3 10 19 12 23 12 15 0z m685
-5 c7 -8 8 -15 2 -15 -5 0 -15 7 -22 15 -7 8 -8 15 -2 15 5 0 15 -7 22 -15z
m-725 -15 c-3 -5 -12 -10 -18 -10 -7 0 -6 4 3 10 19 12 23 12 15 0z m-675 -10
c0 -5 -7 -10 -15 -10 -8 0 -15 5 -15 10 0 6 7 10 15 10 8 0 15 -4 15 -10z
m1050 -25 c18 -22 3 -57 -23 -53 -18 2 -21 9 -19 32 3 27 2 28 -28 23 -19 -4
-29 -3 -25 3 9 15 81 12 95 -5z m-400 -30 c-13 -14 -26 -22 -29 -19 -3 3 5 14
18 25 33 27 39 24 11 -6z m-1339 -18 c-13 -12 -20 -15 -15 -7 12 22 28 39 33
34 3 -3 -6 -15 -18 -27z m-405 -5 c1 -18 1 -19 -3 -2 -6 25 -49 27 -75 3 -10
-9 -18 -12 -18 -7 0 21 26 35 60 32 28 -2 35 -7 36 -26z m1284 14 c0 -2 -8
-10 -17 -17 -16 -13 -17 -12 -4 4 13 16 21 21 21 13z m1110 -21 l23 -25 -26 0
c-22 0 -27 5 -27 25 0 14 1 25 3 25 2 0 14 -11 27 -25z m-2225 -5 c-3 -5 -13
-10 -22 -10 -9 0 -25 -7 -35 -17 -10 -9 -18 -11 -18 -5 0 6 10 18 22 26 25 18
63 22 53 6z m1819 -37 c-4 -16 -9 -31 -11 -35 -8 -15 -32 -8 -47 14 -15 21
-23 48 -10 36 3 -3 17 -2 32 2 41 13 43 12 36 -17z m-809 -33 c-3 -5 -16 -15
-28 -21 -19 -9 -19 -8 3 10 28 23 34 26 25 11z m1581 -64 c-6 -59 -24 -131
-31 -124 -2 2 3 30 11 63 7 33 14 75 14 93 0 17 3 32 6 32 4 0 4 -29 0 -64z
m331 12 c-3 -8 -6 -5 -6 6 -1 11 2 17 5 13 3 -3 4 -12 1 -19z m80 0 c-3 -8 -6
-5 -6 6 -1 11 2 17 5 13 3 -3 4 -12 1 -19z m-2192 -28 c-3 -5 -12 -10 -18 -10
-7 0 -6 4 3 10 19 12 23 12 15 0z m1830 -87 c-9 -15 -13 -19 -10 -8 4 11 10
29 13 40 3 11 7 14 9 8 3 -7 -3 -24 -12 -40z m-1790 -13 c-3 -5 -12 -10 -18
-10 -7 0 -6 4 3 10 19 12 23 12 15 0z m185 -9 c0 -5 -7 -12 -16 -15 -14 -5
-15 -4 -4 9 14 17 20 19 20 6z m2070 -231 c0 -5 -9 -14 -20 -20 -14 -8 -20 -8
-20 1 0 14 -60 -36 -81 -68 l-17 -25 -7 22 c-6 20 -1 35 13 35 16 1 62 39 62
51 0 9 12 14 35 14 19 0 35 -4 35 -10z m-2832 -9 c20 -12 -9 -21 -73 -21 -63
0 -83 17 -28 23 70 7 88 7 101 -2z m-403 -11 c-27 -5 -84 -8 -125 -8 -70 1
-72 2 -25 8 28 4 84 7 125 7 72 0 73 0 25 -7z m1050 -1 c-16 -5 -88 -23 -160
-40 -71 -16 -186 -47 -255 -69 -226 -72 -476 -112 -700 -112 -80 0 -174 5
-210 11 -79 14 -292 72 -287 77 2 3 58 -9 124 -25 67 -16 172 -35 234 -41 227
-23 546 20 827 112 133 43 241 70 362 91 14 2 41 5 60 5 l35 0 -30 -9z m745 2
c3 -1 -29 -23 -70 -50 -135 -89 -268 -238 -346 -386 -15 -27 -44 -76 -65 -107
-22 -31 -39 -59 -39 -62 0 -5 -138 -246 -150 -261 -4 -5 -21 -35 -38 -65 -16
-30 -65 -118 -109 -195 -43 -77 -94 -174 -112 -215 -19 -41 -60 -129 -92 -195
-62 -130 -67 -145 -104 -310 -32 -147 -52 -256 -70 -400 -17 -130 -34 -604
-35 -965 -1 -124 -5 -243 -9 -265 l-9 -40 -1 46 c-2 75 -37 172 -83 231 -23
29 -52 73 -64 98 l-23 45 -2 -75 c-1 -71 -2 -73 -13 -40 -6 19 -14 40 -17 45
-19 30 -23 230 -23 1230 l-1 1100 -28 59 c-35 75 -25 92 33 58 22 -12 40 -20
40 -18 0 18 -45 119 -70 156 -16 25 -30 48 -30 52 0 9 71 -20 91 -38 20 -18
33 -18 25 1 -8 23 11 18 30 -7 9 -13 14 -16 11 -7 -21 63 -29 99 -24 112 3 7
40 26 84 41 169 60 375 151 405 179 32 30 181 80 159 54 -7 -9 3 -12 36 -12
36 -1 52 5 75 26 16 15 43 31 60 35 18 3 39 10 48 15 8 5 65 22 125 39 149 41
306 88 311 92 3 4 80 3 94 -1z m70 -17 c-190 -88 -345 -261 -415 -463 -15 -42
-31 -85 -36 -96 -5 -11 -19 -69 -30 -130 -20 -108 -21 -149 -29 -1933 -4
-1003 -11 -1826 -14 -1829 -11 -12 -7 3526 5 3643 19 189 76 369 161 511 45
75 156 193 248 262 63 48 82 58 120 59 l45 2 -55 -26z m-2610 -69 c42 -38 202
-143 282 -184 l74 -39 181 -1 c193 -2 307 8 443 40 141 33 161 40 155 49 -4 6
-2 10 3 10 4 0 50 9 100 20 72 15 98 17 123 8 40 -14 25 -23 -61 -37 -36 -5
-126 -26 -200 -45 -209 -56 -299 -67 -458 -60 -153 8 -261 -1 -243 -19 6 -6
55 -14 108 -17 84 -6 70 -7 -95 -8 -187 -2 -194 -3 -215 -25 -12 -13 -56 -52
-97 -88 -41 -36 -104 -93 -140 -127 -35 -34 -67 -59 -71 -54 -6 5 -14 590 -10
645 1 10 90 -39 121 -68z m3747 23 c-3 -8 -6 -5 -6 6 -1 11 2 17 5 13 3 -3 4
-12 1 -19z m-681 -46 c-17 -16 -18 -16 -5 5 7 12 15 20 18 17 3 -2 -3 -12 -13
-22z m-1249 -38 c-3 -3 -12 -4 -19 -1 -8 3 -5 6 6 6 11 1 17 -2 13 -5z m673 3
c0 -2 -10 -12 -22 -23 l-23 -19 19 23 c18 21 26 27 26 19z m-1983 -114 c122
-9 93 -26 -36 -21 -89 4 -114 8 -149 28 -23 13 -42 27 -42 31 0 4 33 -2 72
-12 40 -11 110 -22 155 -26z m348 7 c-57 -11 -168 -19 -161 -12 6 6 120 19
171 19 24 1 22 -1 -10 -7z m2228 -17 c-3 -10 -14 -27 -25 -38 -10 -11 -25 -29
-33 -40 -9 -12 -7 -1 4 25 11 24 28 50 37 57 23 17 25 16 17 -4z m-2425 -10
c-10 -2 -28 -2 -40 0 -13 2 -5 4 17 4 22 1 32 -1 23 -4z m2566 -8 c-4 -8 -11
-15 -16 -15 -6 0 -5 6 2 15 7 8 14 15 16 15 2 0 1 -7 -2 -15z m-144 -72 c-11
-17 -11 -17 -6 0 3 10 7 28 7 40 2 22 2 22 6 0 2 -12 -1 -30 -7 -40z m100 7
c0 -5 -5 -10 -11 -10 -5 0 -7 5 -4 10 3 6 8 10 11 10 2 0 4 -4 4 -10z m395
-76 c-31 -25 -58 -44 -61 -42 -9 9 78 88 97 88 15 0 5 -12 -36 -46z m-802
-124 c-29 -16 -56 -38 -62 -47 -5 -10 -13 -14 -17 -10 -13 13 9 38 56 63 65
35 85 29 23 -6z m2115 -45 c5 -23 -17 -15 -36 13 -14 21 -14 22 9 14 13 -5 26
-17 27 -27z m-45 -45 c8 0 8 -3 -1 -12 -13 -13 -42 6 -42 29 0 12 3 12 16 -1
8 -9 21 -16 27 -16z m-1993 -53 c0 -2 -13 -16 -30 -32 -16 -16 -30 -25 -30
-21 0 4 12 18 26 31 25 24 34 29 34 22z m-263 -70 c-14 -19 -33 -49 -41 -68
-11 -23 -14 -26 -10 -9 3 14 17 49 31 79 17 38 28 50 35 43 8 -8 4 -21 -15
-45z m-3436 3 c10 -6 19 -16 19 -22 0 -6 -9 -3 -20 7 -17 15 -22 16 -37 4 -16
-13 -17 -12 -4 4 16 20 16 20 42 7z m4193 -27 c-19 -45 -40 -71 -25 -30 14 36
30 67 36 67 2 0 -3 -17 -11 -37z m-3201 -30 c-24 -2 -62 -2 -85 0 -24 2 -5 4
42 4 47 0 66 -2 43 -4z m883 -1201 c2 -636 4 -1163 4 -1170 0 -7 5 -10 10 -7
13 8 13 8 -7 -56 -10 -31 -17 -89 -17 -139 -1 -63 -6 -92 -18 -110 -33 -48
-69 -143 -74 -194 -5 -47 -41 -142 -50 -133 -2 2 3 24 11 48 19 53 6 42 -29
-27 -16 -31 -29 -76 -33 -115 -3 -35 -12 -78 -19 -95 -22 -53 -108 -108 -257
-165 -32 -12 -70 -31 -85 -42 l-27 -21 22 25 c13 14 49 40 80 58 32 17 63 43
70 56 6 14 9 25 7 25 -11 0 -83 -41 -89 -49 -3 -6 -11 -8 -18 -5 -7 2 -22 -6
-33 -18 l-19 -23 23 19 c12 11 25 16 29 13 3 -4 4 -8 2 -10 -2 -2 -28 -22 -56
-46 -29 -24 -53 -38 -53 -32 0 6 3 11 8 11 4 0 16 13 26 28 12 17 1 10 -28
-18 -26 -25 -55 -57 -64 -72 -29 -49 -40 -32 -17 25 13 30 -11 18 -38 -20 -32
-44 -35 -38 -8 15 22 42 97 125 124 135 9 3 17 11 17 17 0 5 4 10 9 10 6 0 30
14 54 30 51 34 66 38 46 13 -8 -10 0 -6 18 8 17 15 53 37 80 50 52 25 140 108
188 179 22 31 30 55 30 86 0 23 2 40 4 38 9 -9 27 52 30 96 3 64 37 210 71
310 l30 85 4 1160 c2 638 7 1173 11 1189 7 24 9 26 17 12 6 -10 11 -481 14
-1174z m-1154 1124 c1 -20 -2 -39 -5 -43 -4 -3 -7 15 -7 42 0 55 10 56 12 1z
m3119 20 c-7 -8 -41 -36 -76 -61 -56 -42 -115 -109 -115 -133 0 -4 -7 -17 -15
-28 -14 -18 -14 -17 -5 9 5 16 15 38 21 50 7 15 2 12 -15 -8 -31 -37 -33 -26
-4 24 12 21 37 47 55 57 25 13 30 20 21 26 -9 6 -6 7 7 4 14 -4 37 7 74 34 55
42 72 50 52 26z m295 -33 c-8 -15 -15 -25 -16 -21 0 12 23 58 27 54 3 -2 -2
-17 -11 -33z m-2831 -3 l40 -8 -40 -1 c-386 -17 -421 -23 -531 -90 -49 -29
-69 -58 -26 -35 33 17 40 3 18 -31 -10 -15 -12 -25 -6 -25 6 0 8 -5 5 -10 -4
-6 -8 -23 -10 -39 -3 -23 7 -40 55 -91 34 -36 60 -75 64 -93 9 -44 0 -44 -22
0 -11 21 -30 47 -42 58 -44 39 -110 137 -110 164 0 15 -6 35 -14 46 -9 15 -11
40 -7 95 l7 75 8 -52 c4 -29 10 -53 12 -53 2 0 26 16 52 35 102 73 115 76 322
69 102 -3 203 -9 225 -14z m2795 -24 c0 -2 -8 -10 -17 -17 -16 -13 -17 -12 -4
4 13 16 21 21 21 13z m-627 -23 c-9 -26 -22 -41 -57 -66 l-31 -22 22 30 c24
34 62 75 68 75 2 0 2 -8 -2 -17z m579 -25 c-7 -7 -12 -8 -12 -2 0 14 12 26 19
19 2 -3 -1 -11 -7 -17z m-37 -7 c3 -5 1 -12 -5 -16 -5 -3 -10 1 -10 9 0 18 6
21 15 7z m-85 -30 c0 -6 -4 -13 -10 -16 -5 -3 -10 1 -10 9 0 9 5 16 10 16 6 0
10 -4 10 -9z m-183 -33 c-3 -8 -6 -5 -6 6 -1 11 2 17 5 13 3 -3 4 -12 1 -19z
m-1937 -187 c-1 -33 -7 -64 -15 -75 -8 -11 -15 -16 -15 -11 0 4 -3 5 -7 2 -3
-4 4 -18 16 -31 14 -15 21 -33 19 -48 -3 -22 -5 -21 -23 12 -10 19 -20 41 -21
49 -4 22 -25 31 -74 30 -37 -1 -41 -2 -20 -9 22 -7 20 -8 -14 -9 -61 -2 -121
-70 -166 -188 -37 -99 -52 -118 -24 -31 9 29 18 74 19 101 1 41 7 52 46 91 45
44 96 66 152 66 37 0 34 17 -5 30 -33 10 -33 10 6 4 l39 -5 -22 27 c-11 15
-21 31 -21 37 0 5 -8 16 -17 23 -17 13 -17 14 0 8 19 -7 21 -1 8 24 -4 9 -11
31 -15 47 -5 24 -4 26 4 12 6 -9 16 -14 22 -11 6 4 9 3 5 -2 -3 -5 6 -23 19
-39 21 -26 24 -27 25 -10 0 13 5 9 13 -14 19 -54 27 -21 11 43 -23 86 -17 88
21 7 26 -57 34 -86 34 -130z m-2310 175 c0 -3 -4 -8 -10 -11 -5 -3 -10 -1 -10
4 0 6 5 11 10 11 6 0 10 -2 10 -4z m75 -31 c3 -25 -8 -34 -19 -16 -4 5 0 12 6
14 8 3 6 6 -5 6 -15 1 -16 3 -5 15 16 17 20 14 23 -19z m4016 -8 c-10 -9 -11
-8 -5 6 3 10 9 15 12 12 3 -3 0 -11 -7 -18z m-2246 -16 c3 -5 2 -12 -3 -15 -5
-3 -9 1 -9 9 0 17 3 19 12 6z m3330 0 c35 14 37 10 11 -22 -34 -40 -33 -56 4
-77 16 -9 30 -20 30 -23 0 -11 -50 -20 -62 -13 -8 5 -9 2 -5 -9 3 -10 2 -17
-3 -17 -13 0 -70 50 -70 62 0 5 14 23 30 38 28 26 42 59 20 45 -5 -3 -10 -2
-10 3 0 15 13 22 24 13 6 -5 20 -5 31 0z m166 -18 c-8 -15 -10 -15 -11 -2 0
17 10 32 18 25 2 -3 -1 -13 -7 -23z m159 -159 c0 -8 -4 -12 -10 -9 -5 3 -10
10 -10 16 0 5 5 9 10 9 6 0 10 -7 10 -16z m-3724 -21 c-6 -6 -36 9 -36 18 0 5
9 4 20 -3 10 -7 18 -14 16 -15z m192 -10 c12 10 12 6 -1 -20 -9 -17 -16 -49
-15 -70 1 -21 -10 -85 -25 -143 -44 -168 -47 -175 -42 -90 4 70 -4 160 -20
223 -9 35 10 36 28 1 l13 -25 18 40 c12 26 16 49 12 68 -6 22 -5 26 5 16 10
-10 16 -10 27 0z m-1850 -35 c7 -7 12 -18 12 -25 0 -8 -8 -5 -21 8 -20 20 -22
20 -40 3 -23 -21 -26 -12 -3 10 19 19 36 20 52 4z m1248 -119 c3 -6 3 -14 -2
-18 -5 -3 -15 -16 -22 -28 -10 -19 -10 -23 3 -23 8 0 15 -4 15 -9 0 -4 -16 -3
-35 3 -34 10 -34 11 -18 35 11 18 13 26 4 29 -6 2 -9 8 -5 13 7 13 51 11 60
-2z m3192 -36 c16 -16 16 -16 -1 -10 -10 4 -33 7 -50 8 -27 0 -29 2 -12 9 31
13 45 12 63 -7z m-144 -58 c-9 -14 -19 -23 -22 -20 -5 4 26 45 35 45 2 0 -4
-11 -13 -25z m-2478 -96 c-8 -24 -14 -37 -15 -28 -1 19 20 82 25 76 2 -2 -2
-23 -10 -48z m2415 -21 c-14 -40 -27 -65 -29 -56 -3 17 41 128 51 128 2 0 -7
-33 -22 -72z m-203 -12 c-16 -42 -31 -64 -52 -77 -40 -24 -58 -24 -28 0 12 11
22 22 22 26 0 29 65 123 77 111 1 -1 -7 -28 -19 -60z m-2231 -53 c-3 -10 -5
-4 -5 12 0 17 2 24 5 18 2 -7 2 -21 0 -30z m-501 -15 c4 -7 3 -8 -5 -4 -6 4
-18 2 -26 -4 -8 -7 -15 -8 -15 -3 0 23 33 32 46 11z m491 -70 c-2 -13 -4 -3
-4 22 0 25 2 35 4 23 2 -13 2 -33 0 -45z m3341 22 c23 -14 42 -39 59 -78 41
-93 31 -176 -28 -227 -19 -17 -19 -15 5 17 40 54 43 94 12 156 -15 29 -30 51
-34 50 -11 -4 -62 44 -62 59 0 7 -4 13 -10 13 -5 0 -7 7 -4 15 8 20 23 19 62
-5z m-5838 -11 c0 -5 -7 -9 -15 -9 -15 0 -20 12 -9 23 8 8 24 -1 24 -14z
m-728 -31 c2 -16 22 -34 65 -58 35 -19 65 -43 68 -52 9 -26 -17 -57 -53 -64
-41 -8 -54 3 -27 22 28 21 11 43 -57 76 -72 34 -78 45 -44 75 34 29 44 29 48
1z m3177 -582 c-9 -8 -10 7 -5 59 3 39 7 171 8 295 l3 225 2 -284 c3 -204 0
-288 -8 -295z m3166 565 c-3 -6 10 -8 32 -5 l38 5 -37 -20 c-20 -12 -46 -34
-58 -51 -12 -16 -25 -30 -30 -30 -13 0 7 70 26 91 17 19 40 27 29 10z m-4441
-20 c3 -5 -5 -11 -19 -13 -20 -4 -23 -3 -14 8 13 16 25 18 33 5z m891 -139
c-11 -57 -17 -28 -8 39 6 50 9 56 11 30 2 -19 1 -50 -3 -69z m2455 58 c0 -13
-1 -13 -10 0 -5 8 -10 22 -10 30 0 13 1 13 10 0 5 -8 10 -22 10 -30z m1255 30
c9 -15 -16 -43 -27 -32 -10 10 0 42 12 42 5 0 12 -5 15 -10z m-991 -45 c-4 -8
-11 -15 -16 -15 -6 0 -5 6 2 15 7 8 14 15 16 15 2 0 1 -7 -2 -15z m957 -63 c9
-1 30 12 47 29 32 33 42 26 21 -13 -9 -18 -64 -48 -87 -48 -5 0 -9 21 -9 48
-1 37 1 41 6 17 3 -16 13 -31 22 -33z m-1000 1 c-8 -15 -10 -15 -11 -2 0 17
10 32 18 25 2 -3 -1 -13 -7 -23z m1071 -95 c-11 -13 -23 -35 -27 -49 -4 -15
-18 -32 -32 -38 -34 -15 -38 -9 -13 19 11 13 20 29 20 37 0 7 5 13 10 13 6 0
20 9 32 20 29 27 37 25 10 -2z m-770 -48 c-6 -16 -11 -20 -16 -11 -4 6 -2 19
5 27 16 20 21 12 11 -16z m-3502 -49 c0 -4 -12 -26 -26 -47 -15 -21 -22 -40
-16 -42 6 -2 8 -11 5 -20 -12 -33 38 21 63 68 14 25 22 34 18 20 -25 -99 -125
-193 -282 -266 -64 -30 -130 -62 -147 -71 -46 -24 -100 -80 -123 -126 -17 -35
-63 -247 -62 -289 1 -24 24 27 47 102 16 57 22 67 22 43 1 -38 -33 -133 -64
-183 -31 -49 -91 -101 -163 -141 -45 -24 -62 -39 -62 -54 1 -18 1 -19 11 -2 6
9 14 15 19 12 10 -6 71 20 113 48 29 20 47 17 30 -5 -6 -7 -10 -21 -10 -30 0
-14 3 -15 14 -7 7 6 11 15 8 19 -3 5 0 12 6 16 8 4 9 3 5 -4 -9 -15 -9 -15 58
7 41 14 53 15 45 5 -6 -8 -20 -14 -31 -14 -25 0 -68 -23 -92 -49 -20 -22 -8
-28 22 -11 39 22 114 51 164 64 40 10 68 11 115 3 34 -5 81 -7 106 -3 56 9
123 51 138 88 6 16 14 27 16 24 10 -10 -29 -74 -52 -86 -14 -7 -23 -15 -21
-18 15 -14 71 50 113 129 52 99 99 154 148 175 18 7 72 18 121 24 49 6 107 15
129 20 22 5 45 9 50 9 20 -1 -40 -20 -109 -34 -126 -27 -190 -48 -215 -69 -38
-33 -61 -98 -81 -226 -20 -131 -28 -149 -124 -283 -82 -115 -132 -171 -213
-238 -40 -33 -73 -68 -73 -77 0 -9 -11 -27 -24 -41 -12 -15 -33 -60 -46 -101
-13 -41 -27 -79 -33 -85 -6 -6 -7 -3 -4 10 3 11 9 38 13 60 4 22 13 46 21 53
7 7 13 19 13 25 0 21 -129 -121 -146 -160 -46 -111 -40 -209 32 -448 48 -163
90 -259 126 -292 33 -31 114 -73 123 -65 5 4 5 1 1 -6 -8 -14 51 -79 62 -68 4
4 -4 16 -18 26 -29 22 -22 37 10 20 21 -11 21 -11 4 22 -9 18 -29 49 -44 68
-15 19 -46 69 -70 110 -24 41 -50 85 -58 98 -8 12 -12 22 -9 22 3 0 29 -33 58
-72 29 -40 78 -103 110 -139 32 -36 55 -70 51 -74 -4 -5 -2 -5 4 -2 6 4 16 -5
23 -20 7 -14 21 -36 32 -47 10 -12 26 -30 34 -41 8 -11 15 -15 15 -8 0 6 -7
19 -16 28 -9 9 -14 18 -11 21 12 12 -88 175 -142 234 -30 31 -50 99 -61 203
-12 106 -9 153 4 83 7 -36 26 -60 26 -33 0 8 9 34 20 58 l20 44 0 -85 c0 -96
11 -147 45 -205 13 -22 23 -44 23 -49 0 -5 6 -13 14 -17 9 -6 9 -9 1 -9 -7 0
-17 8 -22 18 -19 32 -12 -10 8 -47 11 -21 21 -30 25 -22 4 6 4 16 1 21 -3 6 1
10 9 10 9 0 16 -6 16 -12 0 -10 3 -9 9 1 7 11 11 10 19 -4 5 -10 7 -26 5 -36
-7 -26 1 -24 39 11 30 28 248 147 248 136 0 -2 -24 -18 -52 -35 -75 -43 -51
-38 51 11 47 22 89 42 94 43 4 2 10 4 15 5 4 1 10 2 15 1 4 0 6 5 5 11 -2 7 5
12 14 12 9 -1 14 4 12 11 -3 7 0 16 7 21 8 5 10 3 4 -7 -7 -12 -5 -12 6 -1 8
7 37 54 65 105 28 51 54 90 58 87 3 -3 15 10 26 28 28 45 33 40 10 -10 -10
-24 -36 -86 -56 -138 -61 -155 -54 -148 -200 -213 -135 -61 -176 -89 -157
-108 7 -7 68 18 212 90 110 55 201 99 201 96 0 -10 -141 -93 -208 -123 -88
-39 -152 -78 -152 -93 0 -6 16 1 35 15 19 15 52 33 72 40 21 8 87 39 147 70
60 31 111 54 114 51 13 -13 -77 -86 -166 -135 -91 -51 -151 -102 -216 -184
-16 -20 -26 -40 -22 -43 12 -13 112 -15 155 -3 53 14 107 69 158 160 22 38 79
108 138 170 56 58 120 133 143 167 46 67 105 105 187 118 22 4 57 13 78 21 60
22 57 16 -7 -17 -32 -17 -81 -53 -107 -81 -41 -43 -51 -49 -64 -38 -8 7 -15
21 -15 31 0 29 -24 13 -60 -39 -18 -26 -55 -73 -82 -104 -26 -31 -48 -58 -48
-60 0 -2 9 -4 20 -5 13 -1 26 9 35 28 16 30 29 40 19 15 -3 -8 0 -17 5 -21 6
-3 9 -11 6 -16 -4 -5 0 -9 8 -9 9 0 17 16 21 43 7 40 8 41 22 22 25 -33 15
-147 -19 -216 -15 -31 -27 -61 -27 -67 0 -15 17 -16 25 -2 3 6 11 10 16 10 6
0 -25 -34 -68 -76 -77 -75 -78 -77 -53 -86 14 -5 66 -10 115 -11 89 -2 91 -1
160 40 49 30 73 39 81 32 9 -7 16 -4 24 10 6 12 32 30 58 42 26 12 50 26 54
32 4 7 10 9 13 5 11 -10 -18 -78 -45 -107 -13 -14 -24 -28 -23 -31 1 -3 -11
-14 -25 -24 l-27 -20 18 21 c12 14 15 23 8 28 -14 8 -36 -13 -45 -43 -8 -23
-21 -29 -30 -13 -4 5 -14 8 -24 6 -9 -2 -19 -4 -22 -4 -2 -1 1 -6 7 -12 12
-12 6 -49 -9 -49 -6 0 -3 -11 6 -25 9 -14 14 -30 11 -35 -6 -10 -35 -2 -33 8
1 4 -2 18 -6 31 -5 14 -4 27 3 34 6 6 11 17 11 24 0 8 -15 3 -39 -15 -21 -15
-37 -29 -35 -31 2 -2 11 2 21 10 31 25 -12 -36 -55 -77 -38 -36 -25 -37 15 -1
12 10 27 17 34 15 11 -4 -70 -68 -86 -68 -3 0 -23 -12 -45 -26 -42 -28 -65
-28 -33 0 89 77 110 98 110 111 0 12 -12 8 -53 -14 -92 -52 -176 -82 -304
-107 -69 -14 -136 -26 -149 -27 -13 -1 -26 -7 -28 -14 -6 -16 100 -8 222 18
108 23 163 25 95 3 -95 -30 -193 -44 -316 -46 -142 -1 -187 7 -250 50 -23 15
-55 35 -70 44 -16 9 -44 29 -61 44 -26 21 -33 23 -33 11 0 -19 79 -72 210
-139 200 -103 432 -115 560 -29 14 9 66 37 115 61 119 57 234 139 295 209 28
31 49 58 48 61 -1 3 11 24 25 47 15 24 27 47 27 52 0 5 6 11 13 14 7 3 28 39
46 81 19 42 37 73 41 71 5 -3 6 -15 2 -27 -9 -36 12 -13 41 44 15 29 39 98 53
153 22 85 27 128 31 285 4 145 2 189 -9 202 -16 21 -22 17 -70 -43 -36 -44
-120 -109 -142 -109 -5 0 11 13 36 29 69 44 146 161 132 203 -6 21 30 123 53
148 8 8 20 24 27 34 11 16 14 -2 20 -121 11 -222 -10 -595 -41 -718 -34 -138
-92 -272 -140 -321 -16 -16 -37 -42 -47 -59 l-19 -30 27 19 c29 18 48 14 28
-6 -17 -17 -15 -33 3 -18 12 10 15 9 15 -4 0 -16 -37 -42 -278 -194 -89 -55
-112 -65 -213 -88 -218 -50 -406 -66 -509 -43 -83 18 -302 126 -390 192 -139
104 -179 149 -259 289 -10 18 -41 70 -69 116 -52 84 -104 216 -116 287 -3 23
7 3 24 -49 39 -116 80 -191 141 -260 28 -31 48 -59 46 -63 -8 -13 12 -55 23
-48 6 4 7 -1 3 -11 -5 -13 -3 -15 7 -9 8 5 11 4 7 -2 -11 -18 79 -123 105
-123 5 0 6 -5 2 -12 -4 -6 -3 -8 4 -4 6 3 17 -3 25 -14 7 -11 17 -17 20 -13 4
3 7 2 7 -4 0 -6 7 -14 16 -17 9 -3 -9 22 -40 56 -31 34 -54 63 -52 65 2 2 37
-18 77 -45 89 -59 109 -69 224 -115 85 -34 134 -42 215 -38 34 2 33 3 -22 21
-32 10 -71 29 -87 41 -17 13 -33 20 -37 17 -3 -4 -25 16 -47 44 -34 41 -59 57
-132 90 -49 22 -94 43 -98 48 -11 10 92 -24 125 -41 23 -12 23 -12 4 9 -10 12
-40 34 -65 48 -25 15 -77 55 -116 89 -95 84 -139 106 -128 66 5 -20 95 -110
143 -144 21 -14 21 -16 3 -7 -59 28 -268 223 -258 240 3 6 2 10 -3 10 -5 0 -9
6 -9 13 0 6 -19 74 -42 150 -38 126 -60 219 -96 396 -8 44 -10 95 -5 165 12
157 64 287 161 402 27 33 60 74 72 91 12 18 28 35 36 38 7 3 0 -10 -15 -29
-73 -85 -123 -155 -143 -195 -24 -52 -22 -63 5 -25 36 50 105 134 110 134 3 0
-6 -15 -20 -33 -41 -54 -30 -54 27 0 47 44 104 83 122 83 3 0 -21 -23 -54 -50
-96 -80 -139 -130 -178 -208 -20 -40 -34 -75 -31 -77 3 -3 49 50 103 117 54
68 115 142 136 164 37 42 41 56 26 114 -6 23 -6 22 6 -3 14 -28 27 -27 27 3 0
27 -49 75 -63 61 -15 -15 -28 -14 -21 2 3 8 -7 20 -23 28 -23 11 -113 14 -488
16 -640 4 -716 -5 -872 -106 -131 -84 -177 -144 -224 -296 l-18 -60 5 50 c4
44 3 47 -8 30 -9 -13 -14 -63 -15 -145 -2 -69 -3 -127 -3 -129 0 -2 -7 2 -15
9 -12 10 -18 6 -35 -22 -11 -18 -20 -38 -20 -44 0 -19 -98 -208 -124 -239 -40
-47 -43 -20 -4 37 59 88 85 139 114 223 24 71 27 92 24 190 -7 264 -8 257 29
333 19 39 39 68 44 65 6 -4 8 1 4 11 -4 10 -3 15 3 11 5 -3 14 3 20 14 37 69
159 213 225 264 l40 31 -30 -35 c-16 -20 -9 -13 18 15 26 27 47 46 47 42 0 -5
21 11 46 34 50 46 189 115 250 124 l39 6 -40 -13 c-111 -37 -267 -146 -325
-227 l-20 -28 24 6 c14 4 35 16 48 27 26 23 122 85 130 85 7 0 105 61 180 111
29 20 77 44 106 53 92 31 173 111 236 235 18 35 93 121 106 121 4 0 -10 -18
-32 -40 -21 -23 -38 -46 -38 -53 1 -7 14 3 30 22 16 19 50 47 76 62 36 21 42
28 28 31 -30 6 176 56 464 114 173 34 250 77 309 169 29 47 33 51 33 36z
m4160 -6 c-7 -9 -15 -13 -19 -10 -3 3 1 10 9 15 21 14 24 12 10 -5z m-1230
-10 c0 -6 -56 -35 -67 -35 -9 0 48 38 60 39 4 1 7 -1 7 -4z m2210 -75 c0 -5
-4 -10 -10 -10 -5 0 -10 5 -10 10 0 6 5 10 10 10 6 0 10 -4 10 -10z m-2251 -4
c-2 -2 -15 -9 -29 -15 -24 -11 -24 -11 -6 3 16 13 49 24 35 12z m-1104 -206
c-4 -47 -11 -103 -17 -125 l-11 -40 -8 40 c-10 48 -3 167 14 249 l12 60 8 -50
c4 -27 5 -87 2 -134z m1185 85 c0 -2 -18 -14 -40 -25 -48 -25 -52 -20 -7 9 31
20 47 26 47 16z m607 -37 c-38 -30 -67 -75 -67 -100 0 -7 6 -4 12 7 16 29 58
74 93 97 22 16 18 9 -15 -25 -42 -43 -89 -124 -139 -241 -26 -60 -35 -55 -23
13 5 28 5 48 1 45 -5 -3 -9 -11 -9 -18 0 -29 -65 -98 -154 -165 -103 -76 -127
-106 -175 -222 -17 -41 -45 -90 -62 -109 l-31 -35 21 39 c12 21 20 40 18 42
-2 2 -23 -19 -46 -46 -24 -28 -49 -50 -57 -50 -9 0 -12 -4 -9 -10 3 -5 2 -10
-3 -10 -10 0 -62 -74 -62 -87 0 -5 5 -1 10 7 8 13 10 12 10 -3 0 -34 82 0 127
53 13 16 33 28 47 28 22 0 23 -3 14 -24 -14 -31 -48 -52 -111 -71 -67 -19
-144 -63 -182 -104 l-30 -32 29 18 28 19 -30 -50 c-29 -47 -115 -247 -124
-289 -8 -34 -20 164 -18 285 3 131 4 317 4 405 0 33 -4 99 -8 148 -8 77 -7 87
7 87 10 0 18 -11 21 -32 3 -18 8 -51 12 -73 4 -22 7 -62 7 -90 -1 -52 9 -46
22 15 8 37 60 96 70 80 9 -14 -9 -67 -65 -190 -26 -58 -50 -117 -54 -132 -8
-36 11 -46 24 -13 5 14 14 24 19 21 5 -4 19 6 31 21 12 16 25 28 29 28 7 0 93
71 142 117 9 9 20 13 24 10 3 -4 3 1 0 10 -5 13 -2 15 13 12 26 -7 103 30 137
66 28 30 53 41 39 18 -4 -7 -3 -8 4 -4 7 4 12 13 12 20 0 15 65 77 159 151 71
56 75 62 131 179 61 129 108 203 66 106 -12 -30 -26 -68 -29 -85 -6 -29 -6
-29 4 -5 56 129 62 138 113 178 44 34 46 26 3 -10z m-697 -11 c0 -2 -12 -14
-27 -28 l-28 -24 24 28 c23 25 31 32 31 24z m80 -21 c0 -11 -19 -15 -25 -6 -3
5 1 10 9 10 9 0 16 -2 16 -4z m-38 -38 c-7 -7 -12 -8 -12 -2 0 14 12 26 19 19
2 -3 -1 -11 -7 -17z m1359 -59 c-9 -22 -10 -22 -10 -3 -1 11 2 24 6 27 12 12
14 0 4 -24z m-5721 -63 c0 -3 -36 -24 -80 -47 -98 -51 -166 -121 -214 -222
-18 -40 -37 -83 -41 -96 -6 -21 -5 -23 14 -18 11 3 23 1 26 -3 3 -5 28 3 56
16 28 14 53 23 55 21 3 -2 -20 -21 -51 -42 -30 -21 -62 -49 -70 -62 -9 -13
-19 -22 -23 -19 -5 3 -23 -19 -42 -47 -18 -29 -54 -79 -79 -113 -25 -33 -52
-69 -59 -80 -7 -10 -4 -1 7 21 11 22 51 87 89 145 39 57 68 108 65 114 -3 5
-1 6 5 2 7 -4 12 -15 12 -24 0 -12 3 -13 12 -4 14 14 -6 67 -22 57 -24 -15 -7
61 32 141 51 105 123 176 230 227 83 40 78 38 78 33z m5050 -33 c0 -5 -13 -17
-28 -27 l-27 -19 24 26 c26 28 31 32 31 20z m87 -18 l22 -16 -42 -62 c-37 -56
-44 -62 -69 -59 -15 2 -25 8 -22 13 3 5 -2 12 -10 15 -45 17 27 123 84 124 9
0 25 -7 37 -15z m-826 -38 c-10 -9 -11 -8 -5 6 3 10 9 15 12 12 3 -3 0 -11 -7
-18z m183 -12 c11 -8 17 -17 14 -20 -3 -3 -16 3 -29 14 -27 23 -14 28 15 6z
m-5044 -16 c0 -5 -10 -9 -21 -9 -18 0 -19 2 -9 15 12 15 30 12 30 -6z m5020
-10 c0 -24 -23 -21 -28 4 -2 10 3 17 12 17 10 0 16 -9 16 -21z m-4980 2 c0 -5
-7 -14 -15 -21 -12 -10 -15 -10 -15 2 0 8 3 18 7 21 9 10 23 9 23 -2z m4913
-9 c-5 -11 -7 -11 -14 0 -7 11 -9 10 -9 -1 0 -8 -3 -12 -6 -8 -9 9 3 24 20 24
8 0 12 -6 9 -15z m-1773 3 c0 -2 -9 -19 -20 -37 -19 -32 -20 -32 -20 -7 0 14
5 30 12 37 12 12 28 16 28 7z m1713 -27 c-3 -18 -10 -37 -15 -43 -8 -9 -5 23
8 63 7 25 13 11 7 -20z m-4873 -29 c0 -5 -4 -9 -10 -9 -5 0 -10 7 -10 16 0 8
5 12 10 9 6 -3 10 -10 10 -16z m4671 -50 l-10 -24 0 26 c-1 14 2 29 6 33 12
12 14 -9 4 -35z m-6206 11 c-3 -5 -11 -10 -16 -10 -6 0 -7 5 -4 10 3 6 11 10
16 10 6 0 7 -4 4 -10z m2298 3 c-7 -2 -21 -2 -30 0 -10 3 -4 5 12 5 17 0 24
-2 18 -5z m-2236 -17 c0 -6 2 -17 4 -25 2 -7 -2 -16 -9 -18 -7 -3 -10 1 -6 10
3 8 1 18 -5 22 -15 9 -14 22 2 22 8 0 14 -5 14 -11z m2176 7 c-7 -2 -19 -2
-25 0 -7 3 -2 5 12 5 14 0 19 -2 13 -5z m-46 -9 c-3 -3 -12 -4 -19 -1 -8 3 -5
6 6 6 11 1 17 -2 13 -5z m-77 -19 c-25 -7 -66 -22 -92 -33 -27 -12 -48 -19
-48 -17 0 13 133 65 165 64 11 -1 0 -7 -25 -14z m1560 0 c0 -8 -2 -15 -4 -15
-2 0 -6 7 -10 15 -3 8 -1 15 4 15 6 0 10 -7 10 -15z m-40 -15 c0 -5 -5 -10
-11 -10 -5 0 -7 5 -4 10 3 6 8 10 11 10 2 0 4 -4 4 -10z m252 -34 c25 4 29 3
18 -5 -25 -18 -68 -13 -80 8 -15 30 -12 33 10 11 15 -15 28 -18 52 -14z m-80
-177 c-22 -57 -52 -124 -67 -149 -24 -41 -26 -42 -22 -15 5 26 4 28 -8 12 -10
-14 -14 -15 -18 -5 -4 9 -8 10 -14 2 -15 -20 -193 -105 -193 -92 1 7 13 35 28
61 24 43 37 54 112 90 69 34 89 50 108 82 13 22 21 32 18 22 -3 -10 -6 -23 -6
-28 0 -21 -78 -93 -131 -120 -32 -16 -61 -34 -65 -40 -4 -7 -3 -10 2 -7 5 3
39 19 75 36 40 18 77 44 94 66 15 19 31 33 35 31 8 -5 65 113 76 160 5 18 9
24 12 14 1 -9 -15 -63 -36 -120z m-72 112 c0 -6 -4 -13 -10 -16 -5 -3 -10 1
-10 9 0 9 5 16 10 16 6 0 10 -4 10 -9z m1064 -51 c-15 -27 -33 -50 -41 -50
-19 0 -16 9 17 47 17 18 30 38 30 43 0 6 5 10 11 10 5 0 -2 -22 -17 -50z
m-3117 8 c-8 -12 -22 -47 -32 -76 -9 -29 -19 -52 -21 -50 -6 6 34 128 47 144
18 22 23 9 6 -18z m2927 -24 c-20 -38 -25 -42 -20 -19 8 33 35 79 42 72 3 -2
-7 -26 -22 -53z m1804 21 c-16 -13 -28 -29 -28 -35 0 -6 -5 -8 -11 -4 -6 3
-15 0 -20 -7 -5 -8 -9 -9 -9 -3 0 16 80 87 88 79 4 -4 -5 -17 -20 -30z m-2579
-92 c-28 -47 -29 -48 -29 -37 0 12 38 74 46 74 3 0 -5 -17 -17 -37z m261 -43
c0 -5 -10 -10 -23 -10 -13 0 -28 -5 -35 -12 -7 -7 -12 -8 -12 -2 0 17 23 34
47 34 13 0 23 -4 23 -10z m-2479 -23 c-10 -9 -11 -8 -5 6 3 10 9 15 12 12 3
-3 0 -11 -7 -18z m4883 -12 c-9 -14 -18 -25 -21 -25 -5 0 5 18 20 38 17 22 18
13 1 -13z m2466 -1 c0 -8 -4 -12 -10 -9 -5 3 -10 13 -10 21 0 8 5 12 10 9 6
-3 10 -13 10 -21z m-4417 -8 c21 -16 22 -30 2 -46 -13 -11 -15 -8 -15 18 0 35
-23 38 -46 7 -18 -24 -29 -13 -14 14 12 24 46 27 73 7z m531 -107 c79 -92 89
-164 88 -584 -2 -436 -19 -585 -98 -859 -34 -115 -73 -202 -133 -291 -40 -59
-46 -74 -17 -40 14 17 26 25 26 18 0 -6 -16 -30 -35 -53 -19 -23 -35 -38 -35
-33 0 5 3 13 8 19 4 5 -2 -1 -13 -13 -93 -108 -147 -159 -211 -198 -41 -24
-74 -43 -74 -40 0 3 30 25 68 49 37 25 78 57 92 72 20 22 16 20 -17 -7 -90
-75 -259 -156 -407 -195 -32 -8 -97 -17 -145 -19 -83 -4 -83 -4 -19 4 103 12
95 24 -9 16 -67 -6 -93 -4 -93 4 0 6 12 11 28 11 71 0 362 72 362 89 0 5 28
23 63 41 107 56 165 100 239 181 71 77 148 203 148 244 0 11 5 27 11 35 8 12
9 9 4 -10 -5 -22 -4 -23 5 -7 7 10 9 25 6 33 -3 9 -1 12 4 9 6 -3 10 4 10 17
0 23 19 63 20 43 1 -5 12 18 25 52 13 34 30 72 38 85 8 13 23 50 33 83 l18 60
6 -40 6 -40 8 40 c4 22 12 56 17 75 5 19 9 55 9 80 0 33 3 41 10 30 9 -13 10
-13 10 0 0 8 5 103 10 211 9 183 4 371 -16 573 -8 75 -60 166 -86 150 -8 -5
-9 8 -12 125 -2 53 0 60 9 39 5 -13 23 -40 39 -59z m-500 -19 c4 -31 3 -40 -4
-30 -5 8 -10 30 -10 49 0 45 6 37 14 -19z m-1445 16 c-2 -2 -29 -18 -59 -34
-30 -17 -55 -35 -55 -40 0 -6 -4 -14 -9 -19 -5 -5 -6 -3 -2 5 16 27 -13 9 -63
-40 -96 -96 -160 -216 -204 -381 -18 -71 -21 -110 -21 -282 -1 -151 4 -221 17
-286 60 -299 180 -522 397 -739 99 -100 162 -150 231 -186 17 -8 28 -18 25
-21 -14 -14 -206 128 -286 214 -119 124 -221 269 -281 397 -135 290 -169 717
-78 989 60 181 181 336 311 401 44 22 91 35 77 22z m564 -35 c-5 -21 -43 -59
-87 -87 -17 -11 -6 5 30 43 33 33 60 61 61 62 0 0 -1 -8 -4 -18z m-920 2 c-7
-2 -19 -2 -25 0 -7 3 -2 5 12 5 14 0 19 -2 13 -5z m4013 -8 c-3 -8 2 -21 10
-30 9 -8 11 -15 6 -15 -15 0 -44 38 -37 49 10 16 28 13 21 -4z m-4073 -2 c-7
-2 -21 -2 -30 0 -10 3 -4 5 12 5 17 0 24 -2 18 -5z m248 -3 c39 21 17 -1 -53
-53 -40 -29 -119 -80 -176 -112 -174 -99 -266 -201 -318 -353 -30 -87 -29
-110 1 -48 33 66 56 91 67 73 11 -20 -5 -68 -47 -143 -25 -43 -41 -64 -51 -60
-14 5 -19 -8 -48 -137 -37 -161 -96 -193 -207 -112 -154 114 -411 459 -445
598 l-6 28 -25 -36 c-35 -51 -73 -141 -74 -173 l0 -27 -10 24 c-5 13 -6 47 -3
75 4 28 9 46 11 39 6 -17 79 131 103 210 l20 65 78 26 c42 13 113 32 157 40
95 18 245 27 245 15 0 -4 17 -11 38 -14 20 -4 46 -10 57 -15 11 -4 48 -14 83
-20 34 -7 62 -17 62 -21 0 -5 5 -9 11 -9 5 0 31 -9 56 -21 38 -17 50 -19 74
-9 16 7 29 16 29 21 0 5 9 9 20 9 11 0 20 3 20 8 0 14 128 81 159 83 12 0 12
2 -4 9 -17 7 -17 9 -2 9 9 1 17 5 17 10 0 16 91 25 112 12 10 -6 18 -8 17 -4
-3 17 3 27 8 16 3 -9 10 -10 24 -3z m159 5 c0 -2 -10 -9 -22 -15 -22 -11 -22
-10 -4 4 21 17 26 19 26 11z m-467 -12 c-7 -2 -19 -2 -25 0 -7 3 -2 5 12 5 14
0 19 -2 13 -5z m3683 -65 c-13 -18 -45 -80 -70 -138 -26 -58 -53 -118 -61
-135 l-16 -30 6 30 c7 35 48 141 77 200 17 34 75 105 85 105 2 0 -7 -15 -21
-32z m-3306 18 c0 -2 -8 -10 -17 -17 -16 -13 -17 -12 -4 4 13 16 21 21 21 13z
m1891 -174 c1 -13 -12 -43 -29 -65 -33 -47 -67 -107 -124 -217 -21 -41 -38
-69 -38 -63 0 23 41 143 49 143 13 0 38 67 50 133 8 45 17 64 41 83 27 24 30
31 32 92 l1 67 9 -75 c4 -41 8 -86 9 -98z m-1301 133 c0 -2 -10 -9 -22 -15
-22 -11 -22 -10 -4 4 21 17 26 19 26 11z m2710 -25 c-12 -16 -24 -30 -26 -30
-7 0 5 20 24 43 24 27 25 20 2 -13z m1317 -15 c-37 -38 -53 -45 -42 -18 11 30
-53 -38 -88 -92 -17 -27 -40 -59 -49 -69 -10 -11 -18 -23 -18 -27 0 -4 -12
-14 -27 -23 -27 -17 -28 -17 -8 1 11 10 21 25 23 32 3 13 65 105 99 148 17 21
118 82 136 83 4 0 -7 -16 -26 -35z m-1298 -32 c-35 -55 -55 -103 -63 -148 -4
-22 -25 -96 -47 -164 -22 -68 -38 -128 -36 -134 4 -12 67 106 67 126 0 9 3 18
8 20 4 3 6 -23 5 -56 l-3 -62 15 45 c7 25 17 59 22 75 6 27 8 25 13 -25 4 -32
8 -43 9 -25 1 27 3 28 15 12 12 -16 14 -16 20 -1 3 8 7 30 7 47 1 20 3 25 6
13 16 -63 -55 -240 -142 -351 -26 -33 -53 -72 -61 -87 -8 -16 -18 -28 -23 -28
-4 0 -11 51 -15 114 -7 119 3 188 33 235 16 25 73 192 86 252 12 53 54 142 78
165 31 30 33 21 6 -23z m-3379 33 c0 -2 -8 -10 -17 -17 -16 -13 -17 -12 -4 4
13 16 21 21 21 13z m597 -16 c1 -16 -1 -17 -12 -7 -11 10 -8 19 10 27 1 0 1
-9 2 -20z m1144 3 c13 -16 12 -17 -3 -4 -10 7 -18 15 -18 17 0 8 8 3 21 -13z
m-1231 -38 c-12 -32 -2 -32 32 -1 14 14 29 22 32 19 6 -7 -93 -122 -191 -222
-75 -76 -117 -146 -153 -255 l-27 -80 1 50 c0 27 2 40 4 29 4 -19 36 91 48
165 9 53 47 140 88 201 38 56 43 59 25 12 -5 -15 -8 -25 -5 -22 3 2 22 18 42
34 20 17 50 44 67 62 39 38 49 41 37 8z m4085 -49 c-50 -61 -54 -58 -9 4 20
28 39 49 41 46 3 -3 -12 -25 -32 -50z m126 37 c13 -16 12 -17 -3 -4 -10 7 -18
15 -18 17 0 8 8 3 21 -13z m-4124 -28 c-17 -12 -24 -45 -9 -45 4 0 14 6 21 13
10 10 11 9 6 -5 -9 -22 -29 -23 -49 -2 -22 22 -20 43 7 53 29 11 45 1 24 -14z
m-1942 -42 c-17 -70 -37 -134 -41 -130 -6 6 37 157 44 157 2 0 1 -12 -3 -27z
m4845 24 c0 -2 -12 -14 -27 -28 l-28 -24 24 28 c23 25 31 32 31 24z m470 -28
c-19 -17 -55 -42 -80 -57 -75 -43 -147 -100 -174 -135 -14 -18 -41 -74 -59
-124 -61 -163 -129 -264 -231 -345 -50 -39 -100 -97 -91 -106 2 -2 30 16 62
40 99 74 141 100 153 93 6 -4 21 1 32 12 21 18 21 18 16 -4 -3 -12 -1 -24 4
-25 12 -4 -27 -91 -48 -109 -18 -15 -18 -29 1 -29 18 0 19 -14 5 -41 -14 -25
-8 -24 40 6 52 33 88 72 111 120 16 35 19 37 19 14 0 -29 -51 -112 -84 -135
-11 -8 -61 -39 -111 -68 -49 -29 -89 -58 -88 -64 2 -6 -3 -9 -10 -6 -7 2 -28
-10 -47 -27 -19 -16 -29 -28 -22 -24 6 3 12 3 12 -1 0 -10 -54 -59 -62 -56 -5
1 -8 -2 -8 -7 0 -5 -7 -16 -15 -25 -9 -8 -26 -38 -39 -66 -13 -28 -26 -46 -28
-39 -4 12 -48 -94 -48 -114 1 -7 12 13 26 43 22 49 28 46 9 -5 -14 -36 64 46
94 100 16 27 36 59 45 70 15 19 16 19 6 -7 -5 -15 -19 -47 -32 -70 -42 -78
-42 -80 -8 -63 34 18 52 43 71 100 8 22 18 45 22 50 4 6 14 19 23 30 8 11 3
-5 -10 -35 -14 -30 -31 -75 -39 -100 -30 -92 -43 -117 -80 -160 -21 -24 -35
-51 -32 -58 4 -10 0 -12 -12 -8 -10 4 -14 4 -10 0 3 -4 -14 -30 -39 -57 -72
-80 -101 -148 -44 -102 36 29 288 161 283 148 -8 -19 63 13 99 46 15 13 30 22
33 20 2 -3 -20 -26 -50 -51 -31 -26 -51 -49 -45 -53 20 -12 92 19 129 57 46
46 60 49 31 7 -12 -16 -20 -32 -17 -35 6 -6 54 55 103 131 56 89 158 185 234
222 98 48 140 52 55 6 -138 -75 -215 -144 -284 -252 -17 -26 -48 -65 -69 -87
-82 -84 -108 -102 -249 -164 -39 -18 -80 -42 -90 -54 -10 -11 -33 -32 -51 -46
-17 -14 -32 -30 -32 -36 0 -6 -7 -17 -15 -24 -8 -7 -15 -20 -15 -29 0 -10 3
-12 8 -5 13 21 155 133 191 151 20 10 38 21 41 24 3 3 15 12 28 18 23 12 23
12 8 -12 -9 -13 -62 -51 -119 -85 -118 -70 -120 -72 -172 -167 -21 -38 -51
-89 -66 -111 l-28 -41 37 13 c52 18 64 17 57 -4 -5 -18 -3 -18 75 -2 44 9 80
16 80 14 0 -9 -82 -46 -162 -73 -144 -48 -287 -155 -308 -229 -12 -46 -4 -80
29 -115 20 -22 22 -27 7 -21 -18 7 -19 4 -13 -37 6 -34 5 -40 -4 -26 -6 11 -9
32 -7 48 3 20 -1 34 -14 46 -19 17 -26 5 -7 -14 9 -9 7 -12 -9 -10 -11 0 -19
4 -16 8 2 4 -2 10 -8 12 -10 4 -9 8 2 17 12 8 8 9 -15 4 -27 -7 -29 -6 -16 9
8 10 11 27 7 42 -6 25 -20 30 -51 19 -13 -6 -14 -9 -3 -16 9 -6 6 -7 -9 -3
-31 8 -68 -4 -55 -17 6 -6 8 -27 5 -47 -5 -30 -4 -34 8 -25 20 16 81 35 74 24
-4 -6 -12 -10 -20 -10 -7 0 -32 -21 -54 -47 -26 -31 -41 -42 -41 -31 0 25 -39
34 -55 11 -13 -17 -14 -17 -15 0 0 9 5 17 10 17 6 0 10 7 10 15 0 8 6 12 14 9
8 -3 17 -1 21 5 3 6 0 11 -8 11 -10 0 -13 8 -9 25 7 38 -16 39 -89 6 -77 -35
-97 -54 -79 -76 12 -15 6 -35 -11 -35 -5 0 -9 6 -9 14 0 23 -12 25 -49 10 -27
-11 -32 -17 -22 -27 9 -9 14 -9 21 3 8 12 12 12 18 2 5 -7 13 -12 18 -11 5 1
11 0 14 -1 20 -7 131 -6 157 2 37 11 73 3 73 -16 0 -25 -202 -64 -227 -44 -7
5 -20 8 -30 6 -28 -5 34 -41 76 -43 55 -3 55 -4 36 -25 -10 -11 -16 -22 -13
-25 3 -3 52 -14 109 -24 115 -20 148 -16 150 21 1 16 3 18 6 6 2 -9 0 -26 -6
-37 -8 -14 -8 -20 0 -23 8 -3 9 -17 2 -48 -5 -25 -6 -57 -2 -72 11 -42 69
-110 88 -105 11 2 17 -2 17 -13 0 -11 -6 -16 -16 -13 -13 4 -13 4 0 -6 8 -6
33 -11 55 -11 44 0 112 -16 119 -29 3 -4 -25 -2 -61 5 -72 13 -309 17 -258 4
l30 -8 -35 -3 c-50 -4 -61 -3 -103 5 -27 5 -37 4 -32 -3 3 -6 -1 -11 -11 -11
-10 0 -14 -3 -11 -7 6 -5 17 -8 60 -12 5 -1 5 -6 1 -12 -9 -15 -149 -3 -188
17 -16 8 -32 14 -35 14 -16 0 29 -27 135 -81 110 -55 144 -80 144 -101 0 -4
-10 -8 -22 -8 -12 0 -41 -9 -64 -21 -41 -19 -44 -19 -99 -3 -32 9 -74 27 -94
41 -22 15 -46 23 -62 21 -21 -3 -25 -1 -21 17 6 33 -42 77 -91 83 -23 2 -50 9
-60 14 -18 9 -18 11 3 33 18 19 20 26 9 42 -20 33 -44 43 -78 33 -35 -10 -34
-10 -21 25 5 14 14 23 20 20 5 -3 10 -1 10 5 0 19 -30 23 -71 11 -33 -10 -40
-16 -37 -34 2 -13 16 -28 36 -37 23 -11 31 -21 30 -35 -3 -17 -10 -20 -48 -18
-24 1 -53 7 -65 13 -22 12 -62 76 -115 183 l-34 68 -65 -2 c-94 -3 -105 -1
-129 22 -22 20 -23 20 -145 3 -236 -33 -458 -36 -665 -9 -88 11 -107 11 -130
-1 -25 -13 -27 -12 -30 5 -3 16 -18 21 -89 32 -67 10 -88 10 -91 1 -6 -20 -22
-14 -32 13 -7 19 -17 25 -39 25 -15 0 -34 -7 -41 -15 -19 -23 -33 -18 -28 9 4
22 3 23 -19 15 -13 -5 -33 -14 -44 -19 -15 -8 -19 -7 -19 5 0 8 7 15 15 15 8
0 15 5 15 10 0 6 -4 10 -9 10 -6 0 -13 -4 -16 -10 -3 -5 -15 -10 -26 -10 -20
0 -51 -15 -81 -38 -18 -15 -38 -8 -38 13 0 9 10 13 28 12 24 -2 27 1 25 27 -3
38 -12 45 -28 21 -8 -11 -19 -25 -25 -32 -5 -7 -10 -19 -10 -27 0 -21 57 -84
93 -102 l29 -16 -28 -29 c-32 -34 -40 -36 -48 -11 -12 35 -76 64 -160 74 -45
5 -115 18 -156 30 -62 17 -91 20 -170 14 -52 -3 -106 -8 -120 -11 -14 -3 -4 3
22 14 37 16 66 20 127 18 60 -2 85 1 100 13 20 14 18 15 -27 16 -53 0 -152 20
-165 33 -17 17 18 31 54 21 18 -6 48 -10 66 -10 20 0 36 -7 42 -17 5 -10 13
-15 16 -11 4 4 18 3 31 -2 14 -6 63 -4 131 5 59 8 115 15 124 15 9 0 31 13 48
29 l31 29 -34 21 c-18 12 -39 21 -46 21 -7 0 -19 8 -27 17 -10 13 -16 15 -19
6 -7 -17 -47 -16 -104 1 -32 9 -39 15 -25 17 18 4 16 8 -17 43 -20 21 -41 35
-47 32 -13 -8 -38 3 -45 20 -5 12 -2 12 15 3 17 -8 20 -8 17 2 -2 7 -33 32
-69 56 -35 23 -68 46 -74 51 -88 67 -135 93 -135 75 0 -5 -19 -29 -43 -55 -44
-49 -46 -49 -111 -30 -43 12 -46 32 -4 24 54 -11 65 -8 92 23 21 24 23 31 11
33 -8 2 -15 8 -15 13 0 5 -7 9 -17 9 -9 0 -13 3 -10 7 4 3 2 12 -5 20 -18 23
-4 24 53 5 53 -18 110 -52 262 -160 54 -39 89 -56 112 -58 29 -1 101 -39 143
-74 6 -6 12 -8 12 -4 0 4 8 0 18 -9 19 -18 86 -48 116 -54 10 -2 46 -16 80
-33 84 -40 328 -115 401 -124 11 -1 45 -7 75 -14 102 -21 485 -36 585 -23 114
15 262 47 302 66 18 9 48 23 66 31 l32 15 -37 -6 c-21 -3 -38 -4 -38 -2 0 10
99 37 113 31 46 -17 350 73 387 115 24 27 100 73 100 59 0 -6 10 -3 23 8 12
11 47 36 77 54 73 45 163 114 224 170 162 149 220 218 320 375 62 98 186 344
186 369 0 9 5 16 10 16 6 0 10 8 10 18 0 10 16 65 35 122 20 58 32 113 29 123
-4 12 -2 17 4 13 6 -4 12 29 16 87 4 50 14 153 24 227 15 124 17 131 24 87 3
-27 9 -51 11 -53 2 -3 34 25 71 61 36 36 71 65 77 65 8 0 7 -6 -2 -17 -13 -17
-13 -17 6 -1 11 9 24 17 28 16 5 0 12 4 15 8 4 4 1 4 -5 0 -7 -4 -13 -5 -13
-2 0 8 57 36 62 30 3 -3 27 19 53 48 32 37 61 86 91 156 24 57 44 107 44 113
0 22 -22 -6 -46 -56 -13 -30 -28 -57 -34 -60 -14 -8 58 156 77 178 9 9 14 20
11 23 -3 3 -39 -38 -78 -92 -69 -93 -104 -129 -157 -165 -13 -9 -48 -40 -78
-69 -30 -28 -55 -49 -55 -46 0 16 53 84 87 111 98 79 123 109 172 204 28 54
58 104 68 112 15 12 16 12 10 -3 -5 -15 -1 -18 23 -18 17 0 30 3 30 8 0 4 12
16 27 26 l26 19 -27 -39 c-14 -21 -26 -43 -26 -49 0 -5 8 4 19 20 28 48 107
112 196 160 44 24 89 51 100 59 35 27 31 16 -5 -15z m-3765 -19 c-16 -16 -31
-28 -33 -25 -7 7 39 55 52 55 5 0 -3 -13 -19 -30z m3226 -85 c-6 -35 -9 -41
-10 -20 -1 30 9 78 15 73 2 -2 -1 -26 -5 -53z m-4734 -42 c-3 -10 -5 -4 -5 12
0 17 2 24 5 18 2 -7 2 -21 0 -30z m5127 -55 c-13 -24 -37 -48 -47 -48 -6 0 2
14 18 30 31 32 41 38 29 18z m-2880 -58 c-15 -15 -44 -2 -44 19 0 29 13 33 34
11 14 -14 17 -23 10 -30z m-930 6 c-3 -14 -10 -26 -15 -26 -5 0 -10 -12 -10
-27 -2 -25 -2 -26 -6 -5 -3 13 3 39 12 59 19 39 29 39 19 -1z m3850 1 c-60
-46 -95 -86 -119 -139 -14 -29 -25 -57 -25 -63 0 -5 -10 -21 -21 -35 l-20 -25
15 32 c9 18 16 40 16 50 0 10 19 54 41 98 22 44 38 72 35 63 -4 -10 -9 -26
-12 -35 -4 -13 1 -10 18 7 32 34 78 70 91 70 6 0 -2 -10 -19 -23z m470 4 c4
-5 2 -20 -3 -33 -7 -16 -10 -18 -10 -6 -1 9 -4 23 -7 32 -6 17 11 23 20 7z
m-2994 -14 c0 -2 -15 -16 -32 -33 l-33 -29 29 33 c28 30 36 37 36 29z m-2646
-117 c-8 -35 -21 -71 -28 -80 -7 -8 -35 -57 -61 -108 -26 -51 -49 -91 -51 -89
-3 2 9 36 25 76 16 39 27 71 24 71 -2 0 9 19 25 43 31 46 47 84 57 135 4 19
11 30 16 25 5 -5 2 -37 -7 -73z m5163 22 c-26 -26 -47 -53 -47 -60 0 -7 -4
-12 -10 -12 -5 0 -10 4 -10 8 0 12 95 112 105 112 5 0 -12 -22 -38 -48z m58
13 c-16 -13 -43 -39 -59 -57 -15 -18 -23 -24 -17 -13 15 28 42 57 71 77 37 25
40 21 5 -7z m-2670 -10 c-29 -23 -45 -31 -45 -20 0 6 62 45 70 45 3 0 -8 -11
-25 -25z m120 5 c-3 -5 -12 -10 -18 -10 -7 0 -6 4 3 10 19 12 23 12 15 0z
m373 -15 c-6 -14 -13 -23 -15 -21 -5 5 15 46 22 46 3 0 -1 -11 -7 -25z m1943
-97 c-11 -18 -21 -29 -21 -25 0 13 33 67 38 62 3 -2 -5 -19 -17 -37z m-3829
-73 c3 -55 2 -86 -2 -70 -8 31 -13 182 -6 174 2 -2 5 -49 8 -104z m1849 74
c-9 -22 -10 -22 -10 -3 -1 11 2 24 6 27 12 12 14 0 4 -24z m2070 4 c-12 -20
-14 -14 -5 12 4 9 9 14 11 11 3 -2 0 -13 -6 -23z m-3757 -158 c3 -16 3 -24 0
-17 -3 6 -10 10 -15 6 -12 -7 -11 -51 1 -75 6 -10 8 -19 6 -19 -10 0 -36 59
-36 79 0 11 7 24 15 28 12 7 14 18 8 53 -5 25 -6 63 -4 85 4 33 6 26 11 -35 4
-41 10 -88 14 -105z m310 142 c-5 -13 -44 -41 -44 -31 0 5 41 43 47 44 1 0 0
-6 -3 -13z m1280 -13 c8 -21 8 -24 -5 -24 -5 0 -7 5 -4 10 3 6 1 10 -4 10 -6
0 -11 5 -11 10 0 16 17 12 24 -6z m2143 -26 c-3 -8 -6 -5 -6 6 -1 11 2 17 5
13 3 -3 4 -12 1 -19z m-309 -33 c-12 -24 -23 -43 -26 -41 -4 5 36 86 43 86 3
0 -5 -20 -17 -45z m-1968 25 c0 -5 -5 -10 -11 -10 -5 0 -7 5 -4 10 3 6 8 10
11 10 2 0 4 -4 4 -10z m-1173 -22 c-3 -8 -6 -5 -6 6 -1 11 2 17 5 13 3 -3 4
-12 1 -19z m1293 -23 c-13 -14 -27 -25 -32 -25 -9 0 42 49 51 50 3 0 -6 -11
-19 -25z m377 -37 c-2 -13 -4 -5 -4 17 -1 22 1 32 4 23 2 -10 2 -28 0 -40z
m-312 36 c13 -5 14 -8 3 -15 -19 -13 -28 -11 -28 6 0 17 2 18 25 9z m2092 -56
c-3 -7 -5 -2 -5 12 0 14 2 19 5 13 2 -7 2 -19 0 -25z m-347 8 c0 -2 -8 -10
-17 -17 -16 -13 -17 -12 -4 4 13 16 21 21 21 13z m-2065 -37 c-33 -16 -71 -40
-85 -52 l-25 -22 20 24 c23 27 113 81 135 81 8 0 -12 -14 -45 -31z m-415 -24
c-11 -21 -34 -54 -52 -73 -37 -37 -137 -107 -144 -99 -3 2 7 12 20 21 14 9 44
35 67 58 23 24 39 37 35 31 -4 -7 -3 -13 2 -13 6 0 27 27 48 59 44 67 53 74
24 16z m-1032 -105 c0 -8 -6 8 -14 35 -7 28 -13 61 -13 75 0 14 7 -2 14 -35 8
-33 14 -67 13 -75z m4512 120 c0 -5 -4 -10 -10 -10 -5 0 -10 5 -10 10 0 6 5
10 10 10 6 0 10 -4 10 -10z m-3936 -76 c9 -8 16 -23 16 -33 0 -18 -29 -63 -30
-45 0 5 4 14 10 20 17 17 0 54 -26 54 -13 0 -24 5 -24 10 0 16 37 12 54 -6z
m3997 -17 c-1 -12 -15 -9 -19 4 -3 6 1 10 8 8 6 -3 11 -8 11 -12z m-4053 -56
c-16 -6 -31 16 -24 36 7 16 9 16 21 -7 9 -16 10 -26 3 -29z m5012 -2 c-7 -11
-14 -18 -17 -15 -3 3 0 12 7 21 18 21 23 19 10 -6z m-5553 -11 c-3 -8 -6 -5
-6 6 -1 11 2 17 5 13 3 -3 4 -12 1 -19z m-1466 -123 c3 -121 -5 -175 -27 -175
-10 0 -14 13 -13 53 0 35 3 46 8 32 9 -23 21 58 21 149 0 100 8 58 11 -59z
m5442 25 c-3 -12 -8 -19 -11 -16 -5 6 5 36 12 36 2 0 2 -9 -1 -20z m-4584 -46
c14 -12 -19 -1 -35 12 -18 14 -18 14 6 3 14 -6 27 -13 29 -15z m4219 -4 c-14
-22 -24 -19 -15 5 4 8 11 15 17 15 6 0 6 -7 -2 -20z m156 2 c-11 -9 -33 -26
-49 -37 -80 -56 -116 -100 -161 -193 -24 -52 -47 -93 -49 -90 -3 2 18 50 45
105 50 101 57 109 165 193 48 37 91 57 49 22z m-4339 -11 c-3 -6 -11 -8 -17
-5 -6 4 -5 9 3 15 16 10 23 4 14 -10z m4121 -16 c-11 -8 -24 -15 -30 -15 -5 0
-1 7 10 15 10 8 24 14 29 14 6 0 1 -6 -9 -14z m1232 -2 c0 -10 2 -25 6 -34 6
-14 -19 -48 -28 -38 -14 16 -14 60 0 73 20 20 23 20 22 -1z m-2493 -75 c-4
-18 -12 -37 -18 -43 -7 -7 -8 -4 -3 8 3 11 9 30 12 43 9 36 17 29 9 -8z
m-1241 -20 c-4 -7 -20 -30 -37 -50 -16 -21 -24 -38 -17 -38 6 0 9 -4 5 -10 -3
-5 -12 -7 -20 -3 -8 3 -15 -1 -15 -8 0 -7 -3 -10 -6 -6 -4 3 15 33 42 67 47
58 63 74 48 48z m-536 -43 c-3 -3 -9 2 -12 12 -6 14 -5 15 5 6 7 -7 10 -15 7
-18z m1746 -17 c-12 -40 -85 -191 -112 -235 -26 -41 -42 -54 -42 -33 0 6 4 10
8 10 4 0 39 63 77 140 39 77 71 140 73 140 2 0 0 -10 -4 -22z m-2094 -38 c17
-22 29 -40 27 -40 -3 0 -20 18 -37 40 -17 22 -29 40 -27 40 3 0 20 -18 37 -40z
m1535 25 c-11 -8 -32 -27 -47 -41 -25 -25 -26 -25 -21 -4 3 12 20 31 37 41 36
22 60 25 31 4z m-810 -25 c19 -37 19 -40 -4 -40 -20 0 -30 23 -23 53 6 23 9
22 27 -13z m-577 -60 c15 -12 57 -42 94 -68 37 -26 75 -53 85 -60 10 -7 -9 1
-42 19 -57 30 -160 102 -171 120 -9 15 7 10 34 -11z m-128 -15 c14 -19 14 -19
-2 -6 -10 7 -18 18 -18 24 0 6 1 8 3 6 1 -2 9 -13 17 -24z m1779 -94 c-37 -71
-118 -155 -204 -214 -56 -39 -223 -112 -233 -102 -3 2 8 10 24 16 92 37 174
80 213 110 75 57 175 162 201 211 13 26 26 45 28 43 2 -2 -11 -31 -29 -64z
m-1664 -25 c6 -4 1 -4 -10 2 -11 6 -31 23 -45 39 l-25 28 35 -30 c19 -16 40
-34 45 -39z m205 27 c0 -7 -39 17 -46 28 -3 6 5 3 20 -6 14 -10 26 -19 26 -22z
m3324 2 c-16 -25 -34 -33 -34 -16 0 8 38 41 47 41 2 0 -4 -11 -13 -25z m-3227
-74 c86 -44 143 -82 88 -58 -60 25 -187 97 -173 97 4 0 42 -18 85 -39z m1153
-85 c-44 -44 -201 -131 -223 -123 -5 1 18 13 50 27 32 13 69 32 83 42 34 26
94 66 100 67 2 1 -2 -6 -10 -13z m-1620 -24 c0 -15 -2 -15 -10 -2 -13 20 -13
33 0 25 6 -3 10 -14 10 -23z m-60 -2 c0 -11 -2 -20 -4 -20 -2 0 -6 9 -9 20 -3
11 -1 20 4 20 5 0 9 -9 9 -20z m4740 -109 c13 -25 13 -78 0 -86 -5 -3 -10 -15
-10 -26 0 -25 -17 -25 -25 1 -5 16 -10 18 -25 10 -35 -19 -43 -12 -37 31 9 70
72 115 97 70z m-3626 -12 c-23 -10 -75 -21 -115 -24 -91 -7 -69 7 46 28 106
19 118 19 69 -4z m1747 -2 c-10 -9 -11 -8 -5 6 3 10 9 15 12 12 3 -3 0 -11 -7
-18z m1361 -29 c-9 -9 -12 -4 -11 23 0 32 1 33 11 11 8 -17 8 -26 0 -34z
m-3269 30 c-5 -10 -68 -8 -108 2 -22 6 -10 8 41 7 40 -1 70 -5 67 -9z m3299
-30 c-7 -7 -12 -8 -12 -2 0 14 12 26 19 19 2 -3 -1 -11 -7 -17z m-3707 -39
c25 -12 44 -23 42 -26 -5 -5 -97 34 -97 42 0 8 8 6 55 -16z m3015 18 c0 -1
-21 -20 -47 -41 l-48 -38 42 41 c37 36 53 48 53 38z m598 -57 c4 -37 -6 -105
-14 -97 -3 3 -8 35 -11 72 -3 53 -2 66 9 63 7 -3 14 -20 16 -38z m-5933 22
c14 -10 36 -73 29 -83 -11 -18 -30 -8 -41 21 -6 17 -18 30 -27 30 -16 0 -22
21 -9 33 8 9 35 9 48 -1z m753 -58 c2 -22 0 -25 -13 -14 -18 15 -20 40 -2 40
7 0 14 -12 15 -26z m72 -5 c0 -5 -7 -9 -15 -9 -15 0 -20 12 -9 23 8 8 24 -1
24 -14z m-81 -48 c-3 -6 -10 -7 -18 -2 -7 5 -10 14 -6 21 9 14 29 -2 24 -19z
m3791 25 c0 -2 -8 -10 -17 -17 -16 -13 -17 -12 -4 4 13 16 21 21 21 13z
m-2512 -47 c3 -11 1 -11 -8 1 -10 12 -11 11 -7 -7 7 -31 -7 -29 -21 2 -10 23
-10 24 10 21 12 -1 24 -9 26 -17z m-1493 2 c3 -5 1 -12 -5 -16 -5 -3 -10 1
-10 9 0 18 6 21 15 7z m4961 -13 c4 -13 -3 -27 -20 -43 -14 -13 -26 -29 -26
-35 0 -6 -5 -8 -12 -4 -7 5 -8 3 -3 -6 4 -7 2 -16 -5 -20 -14 -9 -100 47 -100
64 1 51 151 90 166 44z m-3556 8 c0 -2 -7 -9 -15 -16 -12 -10 -15 -10 -15 4 0
9 7 16 15 16 8 0 15 -2 15 -4z m-1290 -10 c0 -2 3 -13 6 -23 5 -15 4 -15 -5
-3 -7 10 -11 11 -11 3 0 -7 -7 -13 -15 -13 -17 0 -18 2 -9 24 5 14 34 24 34
12z m5230 -39 c-18 -17 -39 -47 -47 -66 -16 -38 -29 -37 -14 2 12 30 81 110
89 102 3 -3 -9 -20 -28 -38z m-6510 13 c0 -11 -4 -20 -9 -20 -5 0 -7 9 -4 20
3 11 7 20 9 20 2 0 4 -9 4 -20z m6176 -58 c-10 -10 -29 15 -21 28 6 9 10 8 17
-4 6 -10 7 -20 4 -24z m-4966 -11 c0 -10 -6 -24 -14 -31 -8 -6 -16 -21 -18
-33 -2 -12 -9 -21 -16 -19 -6 1 -12 -3 -12 -9 0 -5 -4 -7 -10 -4 -5 3 -10 17
-10 30 0 24 20 47 20 23 1 -7 10 4 21 25 21 40 39 48 39 18z m95 -8 c-7 -16
-18 -39 -23 -53 -9 -22 -10 -20 -8 15 2 22 4 46 5 53 0 6 10 12 21 12 18 0 18
-2 5 -27z m5199 3 c-6 -16 -24 -23 -24 -8 0 10 22 33 27 28 2 -2 1 -11 -3 -20z
m-5352 -8 c-7 -7 -12 -8 -12 -2 0 6 3 14 7 17 3 4 9 5 12 2 2 -3 -1 -11 -7
-17z m3948 18 c0 -2 -8 -10 -17 -17 -16 -13 -17 -12 -4 4 13 16 21 21 21 13z
m1036 -6 c36 -13 49 -33 59 -90 7 -40 6 -43 -9 -31 -14 12 -16 10 -16 -23 0
-50 -14 -45 -33 12 -9 26 -16 39 -16 30 -1 -10 -7 -18 -13 -19 -10 0 -10 -2 0
-6 22 -9 12 -55 -23 -103 -19 -26 -35 -53 -35 -59 0 -6 -4 -11 -10 -11 -5 0
-10 -7 -10 -15 0 -8 -4 -15 -10 -15 -5 0 -10 -9 -10 -20 0 -11 -5 -29 -12 -39
-15 -25 -41 -13 -63 28 -14 27 -13 31 15 69 16 22 34 43 40 47 6 4 20 28 31
53 11 26 31 68 45 93 13 26 24 58 24 71 0 21 7 38 15 38 1 0 15 -5 31 -10z
m266 -12 c-7 -7 -12 -8 -12 -2 0 14 12 26 19 19 2 -3 -1 -11 -7 -17z m-422
-10 c0 -6 -6 -5 -15 2 -8 7 -15 14 -15 16 0 2 7 1 15 -2 8 -4 15 -11 15 -16z
m-4429 -41 l6 -42 2 43 c0 23 6 42 11 42 11 0 9 -77 -1 -95 -4 -5 -9 -30 -13
-55 -8 -54 -26 -89 -26 -51 0 24 0 24 -15 5 -19 -25 -19 -15 0 31 9 20 15 44
14 53 -4 41 2 125 8 118 4 -3 10 -25 14 -49z m-51 9 c0 -6 3 -22 6 -36 6 -24
6 -24 -11 -8 -22 21 -29 69 -9 61 8 -3 14 -10 14 -17z m176 8 c-5 -13 -2 -15
16 -10 55 15 96 18 102 7 5 -7 -6 -11 -31 -11 -21 -1 -56 -7 -78 -15 -47 -17
-53 -13 -35 20 15 28 36 35 26 9z m-1459 -31 c-3 -10 -5 -4 -5 12 0 17 2 24 5
18 2 -7 2 -21 0 -30z m1246 7 c10 -16 13 -30 8 -30 -6 0 -17 14 -26 30 -9 17
-12 30 -7 30 4 0 16 -13 25 -30z m5164 8 c-3 -8 -6 -5 -6 6 -1 11 2 17 5 13 3
-3 4 -12 1 -19z m813 13 c0 -5 -7 -11 -14 -14 -10 -4 -13 -1 -9 9 6 15 23 19
23 5z m-1634 -23 c4 -13 15 -29 26 -36 10 -7 16 -18 12 -23 -7 -12 -69 25 -68
41 1 5 2 17 3 25 2 23 19 18 27 -7z m-5778 -33 c-3 -3 -9 2 -12 12 -6 14 -5
15 5 6 7 -7 10 -15 7 -18z m1219 3 c-3 -8 -6 -5 -6 6 -1 11 2 17 5 13 3 -3 4
-12 1 -19z m233 -35 c0 -7 4 -13 9 -13 18 0 21 -33 6 -57 -9 -13 -13 -27 -11
-32 3 -5 -3 -11 -14 -14 -26 -7 -25 11 1 39 23 25 20 35 -26 109 l-19 30 27
-24 c15 -14 27 -30 27 -38z m150 37 c0 -6 13 -18 28 -28 15 -9 27 -24 25 -32
-5 -29 41 -105 65 -108 12 -2 22 -8 22 -13 0 -6 4 -8 9 -5 11 7 34 -20 27 -32
-3 -5 4 -23 15 -38 11 -16 -1 -6 -28 23 -63 67 -83 71 -102 17 -11 -32 -19
-41 -36 -40 -16 1 -21 6 -17 19 2 9 8 20 13 23 5 3 9 10 9 15 0 6 -4 8 -9 5
-17 -11 -19 19 -2 38 15 18 15 19 -4 12 -11 -4 -24 -8 -30 -9 -5 -1 -16 -8
-23 -15 -16 -14 -28 -9 -17 7 3 6 26 16 51 22 36 9 44 16 44 34 0 30 -37 76
-55 68 -16 -5 -19 5 -9 31 7 18 24 22 24 6z m193 -4 c4 -10 -9 -19 -42 -30
-26 -8 -55 -18 -64 -22 -9 -3 -17 -2 -17 4 0 5 20 18 45 29 25 10 45 21 45 26
0 13 28 7 33 -7z m-510 -17 c-8 -8 -7 -21 3 -45 20 -49 4 -41 -29 13 -17 28
-22 41 -11 32 15 -12 18 -12 28 3 5 9 12 15 15 12 3 -2 0 -9 -6 -15z m127 -10
c0 -10 -4 -19 -10 -19 -5 0 -10 12 -10 26 0 14 4 23 10 19 6 -3 10 -15 10 -26z
m5765 21 c-28 -12 -37 -12 -30 0 3 6 16 10 28 9 21 0 21 -1 2 -9z m306 -7
c-23 -42 -39 -56 -55 -50 -16 6 -16 9 4 37 23 33 68 44 51 13z m-7281 -43 c0
-21 4 -41 10 -45 5 -3 6 -13 3 -22 -4 -11 -2 -14 5 -9 13 8 26 -33 19 -61 -4
-14 -5 -13 -6 5 0 13 -7 30 -15 38 -8 7 -17 32 -21 54 -4 22 -11 38 -16 34 -5
-3 -9 -1 -9 5 0 5 5 13 11 16 6 4 8 14 5 22 -3 8 -1 11 4 8 6 -3 10 -24 10
-45z m5468 8 c28 -33 43 -35 66 -9 17 19 19 19 48 1 30 -18 66 -60 51 -60 -5
0 -14 9 -20 19 -7 11 -26 22 -44 26 -28 6 -36 2 -80 -41 -34 -34 -49 -43 -49
-31 0 9 9 26 21 38 l21 21 -31 32 c-31 32 -41 54 -19 40 7 -5 23 -21 36 -36z
m-4458 28 c0 -2 -7 -7 -16 -10 -8 -3 -12 -2 -9 4 6 10 25 14 25 6z m5555 -56
c-22 -48 -37 -52 -28 -7 9 49 23 71 36 58 7 -7 5 -22 -8 -51z m-6245 35 c0 -8
-4 -15 -10 -15 -5 0 -10 7 -10 15 0 8 5 15 10 15 6 0 10 -7 10 -15z m6640 -24
c0 -12 -3 -12 -12 -3 -19 19 -40 15 -33 -7 3 -12 0 -21 -11 -25 -36 -14 -46
22 -14 54 17 17 24 18 45 8 14 -6 25 -18 25 -27z m-6520 9 c0 -5 -7 -10 -16
-10 -8 0 -12 5 -9 10 3 6 10 10 16 10 5 0 9 -4 9 -10z m730 -10 c0 -9 9 -26
20 -38 22 -23 26 -47 10 -57 -6 -3 -10 4 -10 18 0 13 -9 33 -20 45 -22 23 -40
29 -40 12 0 -5 -4 -10 -10 -10 -5 0 -10 9 -10 21 0 11 5 17 10 14 6 -3 10 -2
10 4 0 5 9 9 20 8 11 -1 20 -8 20 -17z m5593 -38 c-7 -7 -19 -23 -28 -34 -20
-30 -27 -18 -10 16 8 16 15 38 15 49 0 20 0 20 18 1 15 -16 16 -21 5 -32z
m-7906 1 c-3 -10 -5 -4 -5 12 0 17 2 24 5 18 2 -7 2 -21 0 -30z m1890 21 c-3
-3 -12 -4 -19 -1 -8 3 -5 6 6 6 11 1 17 -2 13 -5z m5288 -34 c3 -6 -1 -7 -9
-4 -18 7 -21 14 -7 14 6 0 13 -4 16 -10z m229 -38 c-6 -14 -8 -13 -14 8 -9 31
0 48 12 26 5 -10 6 -25 2 -34z m-5644 34 c0 -3 -4 -8 -10 -11 -5 -3 -10 -1
-10 4 0 6 5 11 10 11 6 0 10 -2 10 -4z m967 -16 c-44 -24 -47 -24 -47 -6 0 17
15 24 55 25 l30 1 -38 -20z m-417 -16 c0 -8 -7 -14 -15 -14 -17 0 -18 2 -9 24
7 18 24 12 24 -10z m-661 13 c-2 -1 -12 -9 -22 -16 -15 -12 -17 -12 -11 3 3 9
13 16 22 16 8 0 13 -1 11 -3z m5101 -17 c-6 -11 -13 -20 -16 -20 -2 0 0 9 6
20 6 11 13 20 16 20 2 0 0 -9 -6 -20z m1240 10 c0 -5 -4 -10 -9 -10 -6 0 -13
5 -16 10 -3 6 1 10 9 10 9 0 16 -4 16 -10z m-1435 -10 c-3 -5 0 -10 7 -10 8 0
31 -16 52 -35 28 -25 34 -35 21 -35 -9 0 -26 11 -36 24 -11 14 -28 28 -38 31
-24 7 -36 35 -15 35 8 0 12 -4 9 -10z m639 -6 c4 -10 1 -14 -6 -12 -15 5 -23
28 -10 28 5 0 13 -7 16 -16z m616 -10 c0 -8 -4 -12 -10 -9 -5 3 -10 13 -10 21
0 8 5 12 10 9 6 -3 10 -13 10 -21z m440 7 c-5 -11 -20 -23 -32 -26 -46 -14
-88 -37 -82 -46 3 -5 24 -9 47 -9 l42 -1 -40 -15 c-22 -8 -48 -18 -57 -21 -14
-4 -18 -16 -18 -52 l0 -46 -19 24 c-16 21 -17 27 -5 49 7 14 11 29 8 34 -3 4
3 11 12 15 17 6 16 7 0 13 -14 5 -2 17 55 53 81 51 106 59 89 28z m-6397 2
c-7 -2 -19 -2 -25 0 -7 3 -2 5 12 5 14 0 19 -2 13 -5z m89 -13 c-46 -21 -114
-41 -119 -36 -5 5 67 38 102 47 54 13 61 9 17 -11z m4511 13 c-7 -2 -19 -2
-25 0 -7 3 -2 5 12 5 14 0 19 -2 13 -5z m-5099 -10 c3 -4 13 -8 20 -9 45 -6
56 -16 56 -47 l-1 -32 -19 24 c-29 34 -24 15 10 -40 39 -63 26 -62 -24 2 -22
27 -60 63 -85 79 l-44 30 40 0 c22 0 43 -3 47 -7z m4981 -3 c-3 -5 -10 -10
-16 -10 -5 0 -9 5 -9 10 0 6 7 10 16 10 8 0 12 -4 9 -10z m1579 -25 c9 -19 21
-35 26 -35 6 0 10 -11 10 -25 0 -38 -15 -30 -36 20 -20 49 -38 61 -28 18 7
-27 7 -27 -11 -10 -15 16 -16 22 -5 43 18 32 25 30 44 -11z m-5370 8 c9 -23
-9 -39 -27 -25 -8 7 -17 9 -20 5 -4 -3 -7 1 -7 10 0 27 44 36 54 10z m3901 7
c3 -5 2 -10 -4 -10 -5 0 -13 5 -16 10 -3 6 -2 10 4 10 5 0 13 -4 16 -10z m315
-5 c-7 -8 -17 -12 -23 -8 -6 4 -3 9 9 14 27 11 28 11 14 -6z m-5272 -36 c-3
-20 -5 -19 -9 9 -3 20 -2 29 4 23 5 -5 7 -19 5 -32z m72 31 c0 -5 -4 -10 -9
-10 -6 0 -13 5 -16 10 -3 6 1 10 9 10 9 0 16 -4 16 -10z m4826 -6 c-3 -9 -6
-18 -6 -20 0 -2 -7 -4 -15 -4 -18 0 -19 6 -2 25 16 19 31 19 23 -1z m-3662
-86 c-3 -5 -26 -7 -52 -7 -26 1 -37 4 -25 6 35 7 49 30 31 51 -35 41 -26 43
10 2 22 -25 38 -48 36 -52z m-363 65 c13 -16 12 -17 -3 -4 -10 7 -18 15 -18
17 0 8 8 3 21 -13z m694 7 c3 -5 -1 -10 -9 -10 -9 0 -16 5 -16 10 0 6 4 10 9
10 6 0 13 -4 16 -10z m4923 -15 c-3 -3 -9 2 -12 12 -6 14 -5 15 5 6 7 -7 10
-15 7 -18z m475 18 c-7 -2 -19 -2 -25 0 -7 3 -2 5 12 5 14 0 19 -2 13 -5z
m-5679 -19 c3 -8 2 -12 -4 -9 -6 3 -10 10 -10 16 0 14 7 11 14 -7z m-427 -46
c8 -9 10 -19 5 -22 -11 -6 -33 37 -31 62 1 13 2 12 6 -3 3 -11 12 -27 20 -37z
m4473 43 c0 -5 2 -16 5 -24 4 -10 -2 -14 -25 -15 -23 0 -30 4 -30 18 0 18 12
28 38 29 6 1 12 -3 12 -8z m-5340 -56 c-12 -15 -15 -14 -26 6 -18 35 -7 52 18
29 18 -16 19 -22 8 -35z m741 24 c-13 -10 -28 -19 -35 -19 -6 0 -2 6 9 12 11
6 24 18 28 25 5 8 12 12 15 8 4 -4 -4 -15 -17 -26z m4518 -5 c-15 -15 -63 -8
-53 8 3 5 12 7 19 4 8 -3 19 2 26 11 10 11 14 12 17 3 3 -7 -2 -18 -9 -26z
m-3757 12 c19 8 27 6 45 -13 l22 -23 -30 0 c-17 0 -51 -11 -76 -25 -35 -20
-48 -23 -59 -14 -18 14 -18 30 -1 23 7 -2 21 2 32 10 19 14 19 15 1 35 -18 20
-18 20 12 9 21 -8 38 -9 54 -2z m3532 2 c-5 -8 -2 -9 12 -4 45 17 71 18 77 2
5 -12 0 -16 -21 -18 -41 -2 -46 -3 -61 -13 -10 -5 -16 -4 -19 3 -2 7 -21 9
-55 5 -65 -7 -54 8 16 23 29 7 53 12 55 13 2 0 0 -4 -4 -11z m-4204 -2 c0 -3
-4 -8 -10 -11 -5 -3 -10 -1 -10 4 0 6 5 11 10 11 6 0 10 -2 10 -4z m815 -6 c3
-5 1 -10 -4 -10 -6 0 -11 5 -11 10 0 6 2 10 4 10 3 0 8 -4 11 -10z m4802 -36
c-10 -10 -37 16 -37 34 0 13 4 12 22 -5 12 -13 19 -25 15 -29z m103 30 c0 -8
-4 -12 -10 -9 -5 3 -10 10 -10 16 0 5 5 9 10 9 6 0 10 -7 10 -16z m-5646 -10
c3 -8 2 -12 -4 -9 -6 3 -10 10 -10 16 0 14 7 11 14 -7z m4696 -10 c0 -8 -4
-13 -9 -10 -11 7 -56 -51 -76 -96 -8 -18 -14 -28 -15 -21 0 7 -7 10 -15 6 -13
-4 -15 2 -13 30 1 20 4 34 7 32 2 -3 11 4 18 15 13 18 77 58 96 60 4 0 7 -7 7
-16z m1748 -5 c28 -12 53 -28 56 -36 5 -12 -2 -10 -28 5 -18 11 -48 23 -65 27
-17 4 -31 11 -31 16 0 13 12 11 68 -12z m-7658 -4 c0 -8 -4 -15 -8 -15 -5 0
-9 7 -9 15 0 8 4 15 9 15 4 0 8 -7 8 -15z m555 -6 c75 -12 144 -44 197 -91
l33 -29 -35 24 c-41 28 -140 46 -140 25 0 -9 -2 -10 -8 -2 -5 8 -18 3 -41 -17
-19 -16 -33 -30 -30 -31 2 -2 14 -12 26 -22 18 -15 26 -16 37 -7 11 9 15 7 19
-10 5 -18 2 -20 -20 -15 -37 10 -108 59 -92 65 17 5 29 21 29 41 0 9 -11 1
-26 -17 -26 -34 -44 -42 -44 -20 0 7 18 24 41 39 31 20 50 25 77 22 l37 -4
-40 19 c-22 11 -57 23 -78 27 -20 4 -40 11 -43 16 -4 6 1 8 12 5 11 -4 51 -11
89 -18z m885 11 c0 -5 -4 -10 -10 -10 -5 0 -10 5 -10 10 0 6 5 10 10 10 6 0
10 -4 10 -10z m2925 -10 c-19 -21 -101 -70 -116 -70 -5 0 -9 7 -9 16 0 18 1
18 -119 -15 -40 -11 -70 -16 -65 -12 13 10 147 61 160 60 3 0 17 7 31 16 14 9
22 12 19 6 -10 -15 11 -14 59 4 54 19 61 18 40 -5z m-3969 -28 c1 -20 -1 -29
-3 -19 -5 17 -23 24 -23 8 0 -11 -81 -121 -89 -121 -3 0 -7 12 -8 26 -1 20 14
41 59 85 33 32 60 59 61 59 1 0 2 -17 3 -38z m4430 16 c4 -13 2 -24 -5 -26 -6
-2 -11 -10 -11 -19 0 -11 -7 -13 -31 -8 -18 4 -29 3 -26 -2 3 -5 -5 -10 -17
-11 -19 -1 -23 3 -23 23 0 20 5 25 24 25 13 0 21 4 18 10 -3 6 1 7 9 4 9 -4
18 1 22 10 9 23 31 20 40 -6z m-5126 8 c0 -3 -4 -8 -10 -11 -5 -3 -10 -1 -10
4 0 6 5 11 10 11 6 0 10 -2 10 -4z m5344 -21 c-3 -7 2 -41 10 -76 20 -77 15
-87 -10 -19 -14 40 -22 49 -36 44 -10 -3 -18 -1 -18 5 0 5 -3 16 -6 25 -4 10
-1 16 9 16 8 0 17 7 21 15 3 8 12 12 20 9 8 -3 12 -12 10 -19z m1433 19 c-3
-3 -12 -4 -19 -1 -8 3 -5 6 6 6 11 1 17 -2 13 -5z m-5640 -26 c-3 -8 -6 -5 -6
6 -1 11 2 17 5 13 3 -3 4 -12 1 -19z m123 19 c0 -2 -10 -12 -22 -23 l-23 -19
19 23 c18 21 26 27 26 19z m300 -9 c0 -7 -70 -23 -155 -34 -27 -4 -52 -8 -55
-8 -23 -5 -27 -19 -18 -62 11 -52 7 -59 -43 -68 l-36 -6 18 71 c19 78 31 92
69 85 14 -2 48 0 75 5 28 6 58 10 67 10 10 0 20 3 22 7 5 9 56 9 56 0z m246
-13 c28 -14 61 -37 75 -52 l24 -26 -35 20 c-35 21 -94 51 -140 71 l-25 11 26
0 c14 1 48 -10 75 -24z m169 7 c-3 -3 -11 0 -18 7 -9 10 -8 11 6 5 10 -3 15
-9 12 -12z m3822 12 c-3 -3 -45 -7 -94 -9 -53 -2 -80 0 -68 5 23 10 172 13
162 4z m53 -10 c0 -2 -7 -4 -15 -4 -8 0 -15 4 -15 10 0 5 7 7 15 4 8 -4 15 -8
15 -10z m-4757 -8 c9 -7 17 -22 17 -32 -1 -18 -1 -18 -16 1 -8 11 -20 19 -25
18 -5 -2 -9 4 -9 12 0 18 9 19 33 1z m1174 1 c16 6 16 5 4 -11 -13 -16 -13
-17 0 -14 14 3 19 -2 19 -20 0 -5 -13 -9 -30 -10 -45 -1 -55 -11 -32 -33 11
-10 23 -28 27 -39 8 -25 26 -22 40 8 7 16 18 22 43 22 40 0 132 -40 132 -57 0
-25 -167 -30 -206 -6 -11 7 -24 10 -27 6 -4 -3 -7 -2 -7 4 0 18 -37 22 -59 7
-11 -8 -24 -14 -28 -13 -4 1 -21 -3 -36 -9 -48 -20 -77 -12 -55 15 9 11 7 15
-10 20 -12 3 -22 9 -22 12 0 8 112 33 143 33 10 -1 15 4 11 10 -4 6 -25 8 -50
5 -52 -5 -57 4 -10 21 18 7 46 23 61 36 22 19 33 22 51 15 13 -4 32 -5 41 -2z
m4279 -24 c3 -16 10 -45 16 -66 5 -21 8 -51 6 -65 -3 -23 5 -31 52 -59 30 -18
51 -33 48 -33 -14 0 -76 30 -100 49 -15 12 -43 28 -62 36 -20 9 -36 20 -36 25
0 5 -6 7 -14 4 -8 -3 -23 12 -41 41 l-27 47 -16 -24 c-9 -12 -19 -25 -22 -28
-3 -3 -19 -27 -34 -53 -15 -27 -30 -46 -33 -43 -10 9 77 145 103 162 19 13 27
14 39 4 12 -10 15 -10 16 1 0 10 2 10 5 2 4 -8 14 -6 37 8 43 26 55 24 63 -8z
m-385 -40 c-9 -16 -10 -16 -11 4 0 12 3 30 7 40 7 16 8 16 11 -4 2 -12 -1 -30
-7 -40z m745 -72 c0 -19 -1 -19 -19 -3 -28 24 -77 98 -77 114 1 21 96 -89 96
-111z m258 104 c-4 -8 -1 -22 6 -30 11 -13 8 -15 -21 -14 -24 1 -27 3 -11 6
12 2 20 9 16 14 -6 10 2 39 10 39 3 0 3 -7 0 -15z m46 -5 c9 -16 8 -20 -5 -20
-8 0 -15 9 -15 20 0 11 2 20 5 20 2 0 9 -9 15 -20z m830 -8 c0 -15 -2 -15 -10
-2 -13 20 -13 33 0 25 6 -3 10 -14 10 -23z m-6065 -12 c-32 -33 -45 -38 -45
-16 0 8 9 18 20 21 11 3 20 11 20 16 0 5 8 9 17 9 13 0 10 -7 -12 -30z m3656
5 c57 -8 126 -21 153 -30 27 -8 83 -15 125 -15 87 0 144 -23 149 -59 3 -17 -2
-21 -23 -21 -33 0 -65 -17 -65 -34 0 -7 9 -21 21 -32 19 -17 19 -19 3 -31 -26
-19 -35 -16 -29 10 3 12 0 30 -7 39 -16 20 -162 80 -166 68 -2 -5 -18 0 -35
11 -18 10 -41 19 -51 19 -18 0 -18 -1 3 -24 12 -13 25 -40 28 -61 6 -36 5 -37
-18 -30 -13 5 -39 11 -57 16 -42 9 -53 19 -21 19 18 0 20 3 10 9 -11 7 -9 10
8 16 20 6 20 7 4 23 -9 9 -39 19 -66 22 -45 5 -50 8 -62 40 -7 19 -16 44 -20
54 -6 13 -5 17 2 13 6 -4 57 -13 114 -22z m567 -6 c-3 -8 -7 -3 -11 10 -4 17
-3 21 5 13 5 -5 8 -16 6 -23z m-4448 -46 c0 -3 -7 0 -15 7 -8 7 -15 22 -15 34
0 18 2 17 15 -8 8 -15 15 -31 15 -33z m3526 30 c-10 -10 -19 5 -10 18 6 11 8
11 12 0 2 -7 1 -15 -2 -18z m-4751 7 c3 -6 -4 -10 -17 -10 -18 0 -20 2 -8 10
19 12 18 12 25 0z m5438 3 c-7 -2 -19 -2 -25 0 -7 3 -2 5 12 5 14 0 19 -2 13
-5z m-4348 -23 c10 -11 13 -20 7 -20 -6 0 -16 9 -22 20 -6 11 -9 20 -7 20 2 0
12 -9 22 -20z m4620 2 c-3 -3 -11 0 -18 7 -9 10 -8 11 6 5 10 -3 15 -9 12 -12z
m505 -11 c15 -30 -5 -35 -24 -6 -14 21 -14 25 -2 25 9 0 20 -9 26 -19z m-1313
-13 c-3 -8 -6 -5 -6 6 -1 11 2 17 5 13 3 -3 4 -12 1 -19z m1815 -60 c14 -15
21 -28 15 -28 -19 0 -67 53 -66 74 0 21 0 21 12 1 7 -10 24 -32 39 -47z
m-3305 36 c-3 -3 -12 -4 -19 -1 -8 3 -5 6 6 6 11 1 17 -2 13 -5z m-1353 -13
c7 -10 -27 -21 -66 -21 -27 0 -35 9 -21 23 10 10 81 8 87 -2z m-1644 -21 c8
-5 11 -10 5 -10 -5 0 -17 5 -25 10 -8 5 -10 10 -5 10 6 0 17 -5 25 -10z m4235
-4 c58 9 68 9 72 -4 3 -7 1 -12 -4 -10 -4 1 -22 -6 -40 -15 -39 -21 -44 -21
-37 -2 5 11 2 13 -10 9 -9 -3 -16 -1 -16 5 0 6 -10 11 -22 11 -18 0 -20 2 -8
10 8 5 19 5 25 0 6 -5 24 -7 40 -4z m-4767 -13 c6 -10 16 -14 28 -10 18 7 18
6 0 -8 -22 -16 -81 -20 -90 -6 -3 5 1 12 10 15 8 3 12 10 9 16 -3 5 3 10 14
10 11 0 24 -7 29 -17z m1547 6 c4 -5 -9 -9 -27 -9 -19 0 -44 -7 -56 -16 -23
-16 -30 -6 -10 14 9 9 9 12 1 12 -7 0 -14 -4 -17 -9 -3 -5 -16 -7 -28 -3 -21
5 -21 6 -2 12 29 11 133 10 139 -1z m3672 5 c-3 -3 -12 -4 -19 -1 -8 3 -5 6 6
6 11 1 17 -2 13 -5z m-4504 -18 c11 -9 17 -27 17 -54 0 -37 3 -42 28 -48 43
-9 49 -12 25 -13 -12 -1 -34 4 -50 10 -19 7 -29 7 -31 0 -9 -28 -17 -5 -18 54
-1 36 2 65 5 65 3 0 14 -7 24 -14z m2958 -1 c-18 -8 -38 -15 -45 -15 -15 1 46
28 64 29 8 0 0 -6 -19 -14z m2394 -6 c8 -23 9 -21 -24 -35 -22 -9 -20 -10 14
-10 21 0 33 2 26 4 -9 3 -9 8 1 20 10 12 10 16 0 19 -15 6 -6 23 12 23 8 0 12
-17 12 -50 0 -41 -3 -50 -17 -50 -10 0 -21 5 -24 10 -3 6 -18 10 -33 10 -38 0
-60 16 -33 23 12 3 21 13 21 24 0 38 34 47 45 12z m435 5 c0 -8 -66 -31 -77
-26 -16 5 -17 29 -2 34 13 4 79 -2 79 -8z m118 10 c-3 -3 9 -22 28 -42 19 -20
34 -40 34 -44 0 -5 -34 -8 -75 -8 -41 0 -75 -4 -75 -9 0 -16 59 -99 84 -119
13 -10 27 -29 31 -42 10 -32 73 -110 88 -110 7 0 6 4 -3 11 -11 8 -9 9 10 3
14 -4 39 -10 57 -14 17 -4 58 -28 90 -53 32 -24 68 -50 81 -56 21 -11 22 -11
16 16 -15 64 2 78 61 51 20 -9 25 -18 22 -35 -3 -19 -1 -21 14 -13 28 16 38
12 34 -12 -6 -29 -32 -48 -65 -48 -15 0 -93 23 -173 50 -80 28 -152 50 -159
50 -8 0 -14 9 -15 21 -1 11 -19 47 -40 80 -31 48 -42 58 -58 54 -11 -4 -25 -7
-32 -7 -22 -2 -25 -49 -4 -84 l20 -34 -29 0 c-40 0 -60 9 -60 29 0 9 18 49 40
90 l39 74 -20 28 c-29 41 -59 59 -97 59 -18 0 -42 5 -52 10 -12 7 -21 7 -25 0
-3 -5 -14 -14 -23 -19 -14 -7 -17 -4 -18 14 -2 20 2 22 42 19 34 -3 44 0 44
11 0 19 133 81 179 84 8 1 12 -2 9 -5z m-5258 -19 c-7 -8 -18 -15 -24 -15 -6
0 -2 7 8 15 25 19 32 19 16 0z m3321 -8 c-10 -9 -11 -8 -5 6 3 10 9 15 12 12
3 -3 0 -11 -7 -18z m1084 -7 c-3 -5 -10 -10 -16 -10 -5 0 -9 5 -9 10 0 6 7 10
16 10 8 0 12 -4 9 -10z m102 -27 c-3 -10 -5 -4 -5 12 0 17 2 24 5 18 2 -7 2
-21 0 -30z m-6104 20 c-7 -2 -21 -2 -30 0 -10 3 -4 5 12 5 17 0 24 -2 18 -5z
m752 -13 c-3 -5 -16 -15 -28 -21 -22 -12 -22 -12 -3 10 19 21 43 30 31 11z
m-1160 -9 c3 -6 -3 -9 -14 -8 -11 0 -17 5 -15 9 7 11 22 10 29 -1z m635 -1
c12 -8 12 -10 -5 -9 -11 0 -29 4 -40 9 -18 8 -18 9 5 9 14 0 32 -4 40 -9z
m5429 -1 c17 -6 31 -15 31 -20 0 -16 -31 -10 -57 11 -29 22 -21 25 26 9z m539
-82 c-43 -41 -67 16 -26 60 l23 24 11 -33 c10 -29 9 -35 -8 -51z m938 61 c-8
-40 -19 -68 -26 -68 -8 0 2 49 15 70 8 14 14 13 11 -2z m-7561 -19 c-4 -5 -12
-9 -18 -8 -9 0 -8 2 1 6 6 2 9 10 6 15 -4 7 -2 8 5 4 6 -4 9 -12 6 -17z m6355
11 c0 -5 5 -10 11 -10 5 0 8 4 4 10 -3 5 7 5 25 -1 30 -11 32 -29 3 -29 -13 0
-13 -3 -3 -15 7 -8 9 -15 4 -15 -5 0 -22 16 -37 35 -15 19 -23 35 -17 35 5 0
10 -4 10 -10z m-4135 -20 c-3 -5 1 -10 9 -10 24 0 19 -16 -14 -52 -25 -29 -28
-30 -23 -10 3 12 9 25 14 28 5 3 9 13 9 22 -1 16 -2 16 -14 0 -7 -10 -20 -18
-28 -18 -8 0 -20 -6 -27 -12 -11 -11 -13 -10 -9 2 3 8 15 16 27 18 12 2 27 12
34 23 6 10 15 19 20 19 4 0 5 -4 2 -10z m3362 -12 c-3 -8 -6 -5 -6 6 -1 11 2
17 5 13 3 -3 4 -12 1 -19z m-4374 5 c-7 -2 -21 -2 -30 0 -10 3 -4 5 12 5 17 0
24 -2 18 -5z m4767 -8 c20 -24 -3 -65 -35 -65 -28 0 -32 15 -13 55 13 28 30
32 48 10z m-4053 -32 c-3 -10 -5 -4 -5 12 0 17 2 24 5 18 2 -7 2 -21 0 -30z
m213 33 c0 -3 -4 -8 -10 -11 -5 -3 -10 -1 -10 4 0 6 5 11 10 11 6 0 10 -2 10
-4z m4935 -27 c10 -43 1 -46 -12 -4 -6 19 -7 35 -3 35 5 0 11 -14 15 -31z
m411 12 c32 -19 44 -51 44 -113 0 -26 -3 -29 -22 -23 -72 22 -133 155 -71 155
10 0 32 -9 49 -19z m-913 -13 c9 -5 17 -13 17 -18 0 -9 -24 -4 -45 10 -5 3
-22 6 -36 5 -15 0 -26 5 -26 12 0 14 56 9 90 -9z m317 10 c0 -15 -107 -17
-160 -4 l-55 14 107 -1 c60 -1 108 -5 108 -9z m-6045 -14 c-9 -7 -24 -10 -32
-7 -19 8 2 22 29 20 18 -1 18 -2 3 -13z m2385 6 c0 -5 -13 -10 -30 -10 -16 0
-30 5 -30 10 0 6 14 10 30 10 17 0 30 -4 30 -10z m2925 -10 c-3 -5 3 -10 14
-10 11 0 23 5 26 11 4 6 13 -1 21 -17 8 -15 13 -28 12 -28 -11 -6 -60 -26 -64
-26 -3 0 -3 4 1 9 3 5 1 12 -5 16 -6 4 -8 10 -5 15 3 5 1 11 -5 15 -10 6 -5
25 6 25 3 0 2 -4 -1 -10z m540 0 c19 -8 19 -9 -2 -9 -12 -1 -25 4 -28 9 -7 12
2 12 30 0z m1123 -20 l16 -25 -29 25 c-17 14 -32 27 -35 29 -3 2 3 2 14 0 10
-2 26 -15 34 -29z m-5752 -26 c-10 -14 -20 -23 -23 -21 -6 6 30 57 36 51 2 -2
-4 -15 -13 -30z m1829 16 c-10 -11 -20 -18 -23 -15 -7 6 18 35 31 35 5 0 2 -9
-8 -20z m2922 13 c-20 -2 -52 -2 -70 0 -17 2 0 4 38 4 39 0 53 -2 32 -4z
m-5257 -13 c-8 -5 -22 -10 -30 -10 -13 0 -13 1 0 10 8 5 22 10 30 10 13 0 13
-1 0 -10z m474 -27 c-3 -21 -10 -49 -15 -63 -4 -14 -10 -45 -13 -69 -4 -41
-22 -77 -23 -49 -1 7 -4 40 -8 73 -6 57 -5 62 25 103 17 23 33 42 35 42 2 0 1
-17 -1 -37z m4116 33 c0 -11 -19 -15 -25 -6 -3 5 1 10 9 10 9 0 16 -2 16 -4z
m-4660 -26 c-14 -4 -32 -8 -40 -9 -13 -1 -13 0 0 9 8 5 26 9 40 9 l25 -1 -25
-8z m2440 -16 c0 -2 -9 -4 -21 -4 -11 0 -18 4 -14 10 5 8 35 3 35 -6z m-2733
-1 c-20 -2 -52 -2 -70 0 -17 2 0 4 38 4 39 0 53 -2 32 -4z m196 0 c-7 -2 -19
-2 -25 0 -7 3 -2 5 12 5 14 0 19 -2 13 -5z m-105 -10 c-10 -2 -26 -2 -35 0
-10 3 -2 5 17 5 19 0 27 -2 18 -5z m4929 1 c-3 -3 -12 -4 -19 -1 -8 3 -5 6 6
6 11 1 17 -2 13 -5z m907 -46 c7 -38 7 -38 -28 -38 -25 0 -38 6 -46 19 -14 28
-14 29 22 51 37 22 43 19 52 -32z m-4036 14 c6 -9 12 -19 12 -23 0 -13 -60
-81 -97 -109 -21 -16 -45 -35 -53 -42 -18 -16 -54 -2 -86 33 -17 19 -17 22 -3
32 16 12 49 73 49 90 0 5 -12 2 -26 -8 -35 -22 -154 -65 -179 -64 -12 0 -6 5
15 11 19 5 40 14 45 20 7 7 3 8 -12 3 -37 -10 -27 3 20 27 101 53 282 70 315
30z m142 8 c0 -9 -41 -18 -58 -12 -20 6 -14 20 11 24 26 5 47 -1 47 -12z
m-2198 -5 c27 -11 13 -22 -21 -17 -17 2 -29 8 -26 12 3 5 -1 10 -7 13 -7 3 -2
4 12 2 14 -1 33 -6 42 -10z m6528 -6 c0 -11 -4 -17 -10 -14 -5 3 -10 13 -10
21 0 8 5 14 10 14 6 0 10 -9 10 -21z m-5470 2 c0 -15 -41 -61 -55 -61 -9 0 -6
9 10 26 14 15 25 31 25 35 0 5 5 9 10 9 6 0 10 -4 10 -9z m35 -40 c-9 -8 -36
-10 -30 -2 2 4 11 8 20 8 8 0 13 -3 10 -6z m4157 -26 c-14 -18 -23 -22 -28
-14 -4 7 2 20 16 31 30 25 37 15 12 -17z m2244 14 c19 -22 19 -22 -3 -10 -13
6 -23 16 -23 21 0 15 5 12 26 -11z m-7386 -3 c0 -2 -7 -7 -16 -10 -8 -3 -12
-2 -9 4 6 10 25 14 25 6z m970 -10 c0 -2 -8 -10 -17 -17 -16 -13 -17 -12 -4 4
13 16 21 21 21 13z m6540 -10 c0 -15 -18 -31 -26 -23 -7 7 7 37 17 37 5 0 9
-6 9 -14z m-1834 -31 c-1 -8 -5 -17 -9 -21 -4 -4 1 -13 11 -21 15 -13 15 -13
-6 -3 -12 6 -27 8 -33 4 -12 -7 -29 13 -29 35 0 9 8 12 25 9 14 -3 25 -1 25 3
0 5 4 9 9 9 5 0 8 -7 7 -15z m-6616 -21 c0 -8 -4 -12 -10 -9 -5 3 -10 1 -10
-6 0 -7 -2 -10 -5 -8 -2 3 -2 15 2 27 6 23 23 21 23 -4z m1873 -5 c-28 -48
-49 -59 -23 -11 13 23 28 42 32 42 5 0 1 -14 -9 -31z m1629 9 c14 1 29 -2 33
-8 4 -6 -7 -11 -24 -11 -17 -1 -37 -2 -43 -3 -7 -1 -14 7 -16 18 -3 13 0 16 9
10 7 -4 26 -7 41 -6z m2003 -4 c33 -3 78 -10 99 -16 l39 -10 -26 -22 c-31 -27
-133 -42 -182 -27 l-30 9 40 2 c39 2 38 3 -15 11 -78 13 -84 19 -18 16 66 -2
64 4 -9 28 -29 9 -53 19 -53 22 0 3 21 2 48 -1 26 -3 74 -8 107 -12z m1038 2
c4 -10 1 -13 -8 -9 -8 3 -12 9 -9 14 7 12 11 11 17 -5z m-1289 -31 c-4 -10 0
-15 14 -15 11 0 26 -7 33 -16 12 -15 11 -16 -11 -9 -32 10 -71 40 -63 49 13
12 32 6 27 -9z m1256 -6 c-7 -11 -14 -18 -17 -15 -3 3 0 12 7 21 18 21 23 19
10 -6z m-1145 -19 l20 -9 -20 0 c-11 0 -29 4 -40 9 l-20 9 20 0 c11 0 29 -4
40 -9z m-818 -16 c-3 -3 -12 -4 -19 -1 -8 3 -5 6 6 6 11 1 17 -2 13 -5z m331
-64 c-5 -26 -19 -16 -33 23 l-13 39 24 -23 c14 -13 23 -30 22 -39z m-557 36
c-7 -8 -16 -27 -21 -43 -8 -27 -8 -27 -9 -4 -1 14 6 33 16 43 19 21 31 25 14
4z m-3005 -38 c17 -18 41 -50 55 -70 13 -21 27 -38 32 -38 4 0 7 -5 7 -12 0
-6 -9 -3 -20 7 -11 10 -20 14 -20 9 0 -5 -9 9 -19 32 -25 55 -64 85 -102 77
-16 -3 -29 -1 -29 4 0 36 59 30 96 -9z m5207 12 c-3 -11 -9 -20 -14 -20 -5 0
-6 6 -3 13 3 8 -2 14 -10 14 -8 0 -12 -5 -9 -10 4 -6 -3 -8 -18 -4 -13 4 -30
7 -37 7 -7 0 -10 5 -7 10 3 6 28 10 55 10 43 0 48 -2 43 -20z m79 6 c20 -10
28 -11 31 -3 3 9 7 9 18 1 8 -6 30 -14 49 -17 19 -4 46 -9 60 -12 19 -5 22 -4
10 4 -24 17 6 14 41 -5 31 -15 33 -24 7 -28 -25 -3 -36 -16 -31 -36 6 -24 -3
-26 -25 -3 -16 16 -16 16 1 10 11 -4 16 -3 12 3 -3 6 -14 10 -23 11 -11 0 -12
3 -4 6 6 2 12 9 12 14 0 6 -5 7 -12 3 -6 -4 -8 -3 -5 3 9 14 -58 27 -79 15 -9
-5 -26 -7 -38 -5 -18 4 -18 2 4 -10 14 -9 28 -13 32 -11 5 3 8 -4 8 -15 0 -14
9 -23 26 -27 15 -4 60 -29 100 -55 81 -54 84 -55 84 -35 0 32 15 22 16 -10 l1
-34 -31 20 c-87 57 -158 89 -231 105 -76 16 -129 39 -76 33 16 -2 24 3 26 15
2 9 0 15 -4 12 -4 -2 -8 3 -8 11 0 8 6 13 13 10 8 -3 11 0 7 10 -3 7 -11 14
-19 14 -8 0 -14 5 -14 10 0 14 10 13 42 -4z m-1717 -66 c-3 -5 -12 -10 -18
-10 -7 0 -6 4 3 10 19 12 23 12 15 0z m2047 -1 c15 -8 18 -17 13 -37 -15 -60
-44 -67 -74 -18 -30 48 -27 66 10 66 17 0 39 -5 51 -11z m-5857 -51 c125 -41
105 -51 -35 -17 -47 11 -121 23 -165 27 -58 4 -73 8 -55 13 40 12 190 -1 255
-23z m3565 3 c0 -5 -7 -12 -16 -15 -14 -5 -15 -4 -4 9 14 17 20 19 20 6z
m-5345 -111 c-3 -5 -10 -10 -16 -10 -5 0 -9 5 -9 10 0 6 7 10 16 10 8 0 12 -4
9 -10z"/>
<path d="M8285 8789 c-33 -11 -63 -23 -67 -27 -10 -10 100 -4 137 7 17 6 65
13 108 17 42 3 79 9 81 13 2 3 -42 7 -98 8 -79 2 -114 -2 -161 -18z"/>
<path d="M6193 8420 c-13 -10 -58 -33 -100 -50 -81 -34 -119 -57 -127 -77 -3
-7 21 1 52 16 31 16 78 36 104 46 25 9 59 30 74 46 32 33 30 46 -3 19z"/>
<path d="M6250 8290 c-6 -11 -8 -20 -6 -20 3 0 10 9 16 20 6 11 8 20 6 20 -3
0 -10 -9 -16 -20z"/>
<path d="M7338 8293 c6 -2 18 -2 25 0 6 3 1 5 -13 5 -14 0 -19 -2 -12 -5z"/>
<path d="M7765 8280 c-3 -5 -2 -10 4 -10 5 0 13 5 16 10 3 6 2 10 -4 10 -5 0
-13 -4 -16 -10z"/>
<path d="M7638 8207 c-43 -29 -99 -65 -125 -81 -27 -16 -42 -31 -35 -33 6 -3
10 -9 6 -14 -10 -17 13 -9 47 16 19 14 58 36 87 50 29 14 52 31 52 40 0 9 6
18 14 21 16 6 51 54 39 53 -5 0 -43 -24 -85 -52z"/>
<path d="M5857 8209 c-15 -17 -24 -35 -20 -41 5 -9 8 -8 11 2 2 8 13 22 25 31
11 9 18 21 16 27 -2 6 -17 -2 -32 -19z"/>
<path d="M7370 8220 c-8 -5 -10 -10 -5 -10 6 0 17 5 25 10 8 5 11 10 5 10 -5
0 -17 -5 -25 -10z"/>
<path d="M7330 8200 c-8 -5 -12 -12 -9 -15 4 -3 12 1 19 10 14 17 11 19 -10 5z"/>
<path d="M6920 8185 c-11 -13 -10 -14 4 -9 9 3 16 10 16 15 0 13 -6 11 -20 -6z"/>
<path d="M5475 8172 c-6 -5 -51 -26 -102 -46 -50 -21 -106 -51 -125 -67 -25
-22 1 -12 110 42 78 39 142 72 142 75 0 7 -15 4 -25 -4z"/>
<path d="M5817 8153 c-4 -3 -7 -11 -7 -17 0 -6 5 -5 12 2 6 6 9 14 7 17 -3 3
-9 2 -12 -2z"/>
<path d="M7415 8010 c-3 -5 1 -10 9 -10 9 0 16 5 16 10 0 6 -4 10 -9 10 -6 0
-13 -4 -16 -10z"/>
<path d="M7555 7740 c-14 -27 -25 -56 -25 -65 0 -8 -4 -15 -9 -15 -9 0 -26
-48 -23 -62 1 -5 -3 -8 -9 -8 -6 0 -8 -9 -4 -21 4 -12 3 -19 -2 -16 -5 3 -10
-6 -11 -20 -2 -24 0 -24 28 12 16 21 30 44 30 51 0 8 4 14 8 14 16 0 30 46 28
86 -2 21 3 51 11 67 7 15 11 27 8 27 -2 0 -16 -22 -30 -50z m2 -42 c-3 -8 -6
-5 -6 6 -1 11 2 17 5 13 3 -3 4 -12 1 -19z"/>
<path d="M7425 7737 c-27 -23 -61 -55 -77 -72 -29 -30 -106 -141 -127 -182
-14 -27 -14 -46 -1 -38 6 4 10 3 9 -2 -1 -4 -1 -16 0 -26 2 -27 41 -2 41 26 0
18 2 19 10 7 9 -13 14 -11 32 10 11 14 25 24 29 23 5 -2 8 0 8 5 -1 4 -1 16 1
27 1 18 2 18 8 3 6 -14 11 -10 30 22 18 32 19 38 6 33 -13 -5 -15 -2 -9 18 8
23 38 70 63 97 6 7 12 17 12 21 0 4 8 16 18 27 15 15 16 22 7 31 -9 8 -24 1
-60 -30z m3 -57 c-7 -11 -16 -20 -20 -20 -5 0 -8 -6 -8 -13 0 -8 -13 -26 -30
-40 -16 -15 -30 -23 -30 -18 0 12 50 84 69 98 24 19 33 15 19 -7z"/>
<path d="M7156 7274 c-21 -19 -36 -38 -33 -40 2 -2 24 14 48 36 24 22 39 40
34 40 -6 0 -28 -16 -49 -36z"/>
<path d="M7123 7187 c-29 -31 -46 -65 -67 -129 -34 -104 -30 -134 8 -55 14 31
29 57 32 57 3 0 2 -4 -1 -10 -3 -5 -2 -10 2 -10 9 0 17 13 49 80 26 54 39 110
26 110 -5 0 -27 -19 -49 -43z m-16 -99 c-3 -8 -6 -5 -6 6 -1 11 2 17 5 13 3
-3 4 -12 1 -19z"/>
<path d="M7012 7010 c0 -19 2 -27 5 -17 2 9 2 25 0 35 -3 9 -5 1 -5 -18z"/>
<path d="M7022 6820 c0 -14 2 -19 5 -12 2 6 2 18 0 25 -3 6 -5 1 -5 -13z"/>
<path d="M7314 6618 c-15 -23 -34 -60 -34 -66 0 -4 12 11 26 31 14 21 24 41
21 43 -3 3 -9 -1 -13 -8z"/>
<path d="M7250 6530 c-6 -12 -9 -24 -7 -27 3 -2 11 5 17 17 6 12 9 24 7 27 -3
2 -11 -5 -17 -17z"/>
<path d="M7210 6470 c-6 -11 -7 -20 -3 -20 5 0 14 9 21 20 7 11 8 20 2 20 -5
0 -14 -9 -20 -20z"/>
<path d="M7326 6404 c-31 -55 -33 -66 -7 -33 25 33 44 70 38 75 -3 3 -16 -16
-31 -42z"/>
<path d="M7271 6342 c-17 -31 -13 -40 5 -14 9 13 14 26 11 29 -3 2 -10 -4 -16
-15z"/>
<path d="M7165 6069 c-11 -17 1 -21 15 -4 8 9 8 15 2 15 -6 0 -14 -5 -17 -11z"/>
<path d="M7322 5759 c-18 -33 -28 -58 -22 -54 15 9 62 93 58 104 -1 5 -18 -17
-36 -50z"/>
<path d="M6246 7541 c-3 -5 0 -12 6 -15 7 -3 -8 -4 -33 -4 -34 1 -51 -4 -67
-20 -12 -12 -32 -24 -44 -27 -26 -7 -48 -46 -48 -87 0 -32 52 -144 103 -222
10 -14 17 -35 17 -46 0 -12 11 -36 25 -54 14 -18 25 -41 25 -51 0 -10 3 -15 6
-12 4 3 15 2 25 -4 16 -8 21 -3 38 33 45 101 59 162 65 303 l7 140 -35 33
c-20 18 -40 30 -46 27 -6 -4 -17 -2 -25 5 -8 7 -15 7 -19 1z"/>
<path d="M6360 7530 c0 -5 10 -10 23 -10 18 0 19 2 7 10 -19 13 -30 13 -30 0z"/>
<path d="M5752 4575 c-2 -22 -9 -53 -18 -70 -14 -30 -13 -18 2 38 5 15 3 19
-4 12 -13 -13 -75 -212 -70 -226 2 -6 25 25 51 70 46 79 48 85 44 149 -2 41
-4 51 -5 27z"/>
<path d="M5285 3819 c-34 -21 -29 -25 10 -7 14 6 25 15 25 20 0 10 1 10 -35
-13z"/>
<path d="M4296 5561 c-4 -5 -37 -30 -76 -55 -49 -32 -97 -54 -162 -72 -409
-113 -460 -140 -529 -276 -28 -55 -82 -118 -102 -118 -4 0 8 13 26 30 32 28
123 181 99 166 -6 -4 -39 -43 -73 -87 -34 -44 -64 -77 -67 -74 -3 2 1 11 8 20
7 8 10 15 7 15 -3 0 12 35 33 77 53 104 26 72 -45 -52 -65 -113 -92 -146 -152
-182 -24 -14 -43 -27 -43 -29 0 -11 23 -1 70 31 29 20 55 34 57 31 3 -2 -8
-13 -24 -23 -15 -10 -32 -23 -38 -29 -5 -6 -54 -41 -108 -78 -84 -58 -146
-120 -132 -134 2 -2 41 15 87 38 59 29 116 48 191 62 137 27 153 42 191 168
15 49 29 90 32 90 15 0 -40 -275 -57 -286 -5 -3 -9 -9 -9 -15 0 -12 33 -12 46
1 6 6 21 12 33 15 13 2 49 23 80 46 47 35 52 38 31 13 -14 -16 -40 -44 -59
-61 -37 -36 -37 -52 1 -33 47 25 116 111 133 169 10 31 22 67 28 81 14 36 17
48 21 115 1 33 6 67 10 76 4 8 8 28 9 44 2 28 1 29 -38 27 -39 -3 -38 -2 39
39 44 23 122 56 175 74 127 43 181 65 181 75 0 4 11 11 24 14 23 6 129 95 114
96 -4 0 -9 -4 -12 -9z m-627 -348 c-8 -9 -13 -26 -12 -37 1 -12 0 -15 -3 -8
-8 16 -19 15 -38 -4 -9 -8 -16 -11 -16 -6 0 10 66 72 77 72 3 0 -1 -7 -8 -17z
m-205 -225 c-5 -7 -9 -20 -11 -28 -2 -16 -48 -60 -63 -60 -5 0 -5 11 2 25 6
13 15 22 19 19 5 -3 14 8 21 23 13 28 29 45 36 38 2 -2 0 -10 -4 -17z"/>
<path d="M3648 5353 c7 -3 16 -2 19 1 4 3 -2 6 -13 5 -11 0 -14 -3 -6 -6z"/>
<path d="M3421 5194 c0 -11 3 -14 6 -6 3 7 2 16 -1 19 -3 4 -6 -2 -5 -13z"/>
<path d="M4388 4888 c-8 -13 -26 -48 -40 -78 -14 -30 -38 -68 -52 -84 -32 -36
-34 -46 -4 -20 42 36 57 59 87 132 31 75 33 87 9 50z"/>
<path d="M3766 4853 c-6 -14 -5 -15 5 -6 7 7 10 15 7 18 -3 3 -9 -2 -12 -12z"/>
<path d="M2885 4775 c-49 -24 -103 -55 -120 -69 -35 -31 -25 -35 13 -6 14 11
28 17 31 12 3 -5 32 -9 64 -7 59 2 71 9 110 65 20 29 22 50 5 49 -7 0 -53 -20
-103 -44z"/>
<path d="M3170 4721 c-37 -20 -90 -71 -74 -71 11 0 134 78 134 85 0 10 -26 4
-60 -14z"/>
<path d="M3976 4679 c3 -5 -7 -9 -23 -9 -24 0 -93 -32 -93 -44 0 -5 84 11 143
29 28 8 62 15 76 16 26 0 26 0 4 9 -29 12 -114 10 -107 -1z"/>
<path d="M3298 4543 c12 -2 32 -2 45 0 12 2 2 4 -23 4 -25 0 -35 -2 -22 -4z"/>
<path d="M3760 4029 c-6 -24 -13 -51 -16 -59 -3 -10 -2 -12 5 -5 11 11 32 97
26 103 -2 2 -9 -16 -15 -39z"/>
<path d="M5649 3904 c-5 -15 -7 -29 -5 -32 5 -4 10 6 22 46 7 23 -7 12 -17
-14z"/>
<path d="M4831 3590 c-2 -28 -89 -189 -120 -222 -41 -44 -39 -54 6 -24 30 21
43 43 80 132 24 59 42 112 39 118 -2 6 -5 4 -5 -4z"/>
<path d="M4347 3173 c-3 -5 1 -14 9 -21 12 -10 14 -10 14 2 0 17 -16 30 -23
19z"/>
<path d="M4136 3052 c-3 -5 16 -26 42 -47 l47 -38 -40 44 c-22 24 -41 45 -41
47 -1 2 -4 -1 -8 -6z"/>
<path d="M4130 3016 c0 -2 8 -10 18 -17 15 -13 16 -12 3 4 -13 16 -21 21 -21
13z"/>
<path d="M4270 2963 c0 -6 8 -17 18 -24 16 -13 16 -13 2 6 -8 11 -16 22 -17
24 -2 2 -3 0 -3 -6z"/>
<path d="M5385 2940 c-10 -11 -15 -23 -12 -27 7 -6 36 25 37 40 0 11 -6 8 -25
-13z"/>
<path d="M5228 2897 c-90 -61 -139 -105 -73 -67 77 45 155 101 155 110 0 13 6
16 -82 -43z"/>
<path d="M4330 2894 c0 -5 7 -18 15 -28 8 -11 15 -16 15 -10 0 5 -7 18 -15 28
-8 11 -15 16 -15 10z"/>
<path d="M5076 2795 c-11 -8 -15 -15 -10 -15 6 0 19 7 30 15 10 8 15 14 9 14
-5 0 -19 -6 -29 -14z"/>
<path d="M4430 2782 c0 -17 45 -55 84 -72 45 -19 146 -35 146 -23 0 4 -32 18
-70 30 -38 12 -88 34 -110 48 -43 27 -50 29 -50 17z"/>
<path d="M4918 2743 c6 -2 18 -2 25 0 6 3 1 5 -13 5 -14 0 -19 -2 -12 -5z"/>
<path d="M4868 2733 c6 -2 18 -2 25 0 6 3 1 5 -13 5 -14 0 -19 -2 -12 -5z"/>
<path d="M5240 2655 c-42 -22 -134 -105 -116 -105 16 0 162 81 191 105 21 18
23 23 8 16 -27 -14 -46 -14 -38 -1 8 13 7 13 -45 -15z"/>
<path d="M7994 5104 c3 -9 6 -17 6 -20 0 -2 7 -1 15 2 12 5 13 10 4 20 -16 19
-33 18 -25 -2z"/>
<path d="M4586 4625 c-9 -26 -7 -32 5 -12 6 10 9 21 6 23 -2 3 -7 -2 -11 -11z"/>
<path d="M5922 3220 c0 -14 2 -19 5 -12 2 6 2 18 0 25 -3 6 -5 1 -5 -13z"/>
<path d="M4294 4198 l-19 -23 23 19 c12 11 22 21 22 23 0 8 -8 2 -26 -19z"/>
<path d="M7477 3943 c-4 -3 -7 -13 -7 -22 1 -13 3 -13 11 2 11 19 8 33 -4 20z"/>
<path d="M7365 3540 c-3 -5 -1 -10 4 -10 6 0 11 5 11 10 0 6 -2 10 -4 10 -3 0
-8 -4 -11 -10z"/>
<path d="M7119 3261 c-42 -35 -129 -198 -128 -239 0 -23 4 -19 23 23 12 28 26
62 29 78 4 15 12 27 17 27 6 0 10 6 10 13 0 6 12 26 26 42 24 26 26 27 20 8
-17 -62 -15 -64 14 -13 17 30 29 63 28 73 -3 15 -8 14 -39 -12z"/>
<path d="M6659 2253 c-13 -16 -12 -17 4 -4 9 7 17 15 17 17 0 8 -8 3 -21 -13z"/>
<path d="M6693 2057 c-29 -17 -51 -33 -49 -35 5 -5 94 47 102 59 7 12 7 12
-53 -24z"/>
<path d="M3291 2017 c2 -1 12 -9 22 -16 14 -12 17 -11 17 3 0 10 -8 16 -22 16
-12 0 -19 -1 -17 -3z"/>
<path d="M5999 1753 c-13 -16 -12 -17 4 -4 9 7 17 15 17 17 0 8 -8 3 -21 -13z"/>
<path d="M6218 1623 c7 -3 16 -2 19 1 4 3 -2 6 -13 5 -11 0 -14 -3 -6 -6z"/>
<path d="M5560 1530 c-10 -7 15 -9 80 -9 80 1 88 3 50 10 -63 11 -112 10 -130
-1z"/>
<path d="M6472 1424 c6 -31 35 -40 57 -20 27 24 18 36 -25 36 -28 0 -35 -4
-32 -16z"/>
<path d="M5790 1330 c0 -5 5 -10 10 -10 6 0 10 5 10 10 0 6 -4 10 -10 10 -5 0
-10 -4 -10 -10z"/>
<path d="M5957 1300 c3 -11 9 -20 14 -20 5 0 9 9 9 20 0 11 -6 20 -14 20 -9 0
-12 -7 -9 -20z"/>
<path d="M7410 2280 c0 -13 11 -13 30 0 12 8 11 10 -7 10 -13 0 -23 -4 -23
-10z"/>
<path d="M7460 2180 c0 -5 5 -10 10 -10 6 0 10 5 10 10 0 6 -4 10 -10 10 -5 0
-10 -4 -10 -10z"/>
<path d="M7438 2046 c-19 -14 -23 -43 -9 -65 6 -10 12 -4 21 23 14 45 10 59
-12 42z"/>
<path d="M2902 2070 c0 -14 2 -19 5 -12 2 6 2 18 0 25 -3 6 -5 1 -5 -13z"/>
<path d="M3146 1897 c3 -10 9 -15 12 -12 3 3 0 11 -7 18 -10 9 -11 8 -5 -6z"/>
<path d="M2626 1725 c-9 -26 -7 -32 5 -12 6 10 9 21 6 23 -2 3 -7 -2 -11 -11z"/>
<path d="M3063 1325 c-3 -9 -3 -18 -1 -21 3 -3 8 4 11 16 6 23 -1 27 -10 5z"/>
<path d="M8140 1270 c-13 -9 -13 -10 0 -10 8 0 22 5 30 10 13 9 13 10 0 10 -8
0 -22 -5 -30 -10z"/>
</g>
</svg>
